<?xml version="1.0" encoding="utf-8"?>
<svg version="1.1" id="Layer_1" xmlns="http://www.w3.org/2000/svg" xmlns:xlink="http://www.w3.org/1999/xlink" x="0px" y="0px"
viewBox="0 0 17 17" style="enable-background:new 0 0 17 17;" xml:space="preserve">
<style type="text/css">
.st0{fill:#41982C;}
.st1{fill:#FFFFFF;}
</style>
<g>
<path class="st0" d="M8.5,0.7c-4.3,0-7.8,3.5-7.8,7.8c0,4.3,3.5,7.8,7.8,7.8s7.8-3.5,7.8-7.8C16.3,4.2,12.8,0.7,8.5,0.7z M7.5,11.5
L4.6,8.6L5,8.2l2.5,2.5l4.7-4.8l0.4,0.4L7.5,11.5z"/>
<path class="st1" d="M8.5,0.2c-4.6,0-8.3,3.7-8.3,8.3s3.7,8.3,8.3,8.3s8.3-3.7,8.3-8.3S13.1,0.2,8.5,0.2z M8.5,16.3
c-4.3,0-7.8-3.5-7.8-7.8c0-4.3,3.5-7.8,7.8-7.8s7.8,3.5,7.8,7.8C16.3,12.8,12.8,16.3,8.5,16.3z"/>
<polygon class="st1" points="7.5,10.6 5,8.2 4.6,8.6 7.5,11.5 12.7,6.3 12.3,5.9 	"/>
</g>
</svg>
