<?xml version="1.0" encoding="utf-8"?>
<!-- Generator: Adobe Illustrator 22.0.1, SVG Export Plug-In . SVG Version: 6.00 Build 0)  -->
<svg version="1.1" id="Layer_1" xmlns="http://www.w3.org/2000/svg" xmlns:xlink="http://www.w3.org/1999/xlink" x="0px" y="0px"
	 viewBox="0 0 570 300" style="enable-background:new 0 0 570 300;" xml:space="preserve">
<style type="text/css">
	.st0{fill:url(#SVGID_1_);}
	.st1{fill:#C6C6C6;stroke:#FFFFFF;stroke-width:0.7;stroke-miterlimit:10;}
	.st2{fill:#F9BE03;stroke:#FFFFFF;stroke-width:0.4;stroke-miterlimit:10;}
</style>
<g>
	<linearGradient id="SVGID_1_" gradientUnits="userSpaceOnUse" x1="604.494" y1="186.751" x2="441.7903" y2="328.0846">
		<stop  offset="0" style="stop-color:#FFFFFF;stop-opacity:0"/>
		<stop  offset="0.7577" style="stop-color:#00AFD8"/>
	</linearGradient>
	<path class="st0" d="M649.2,282.7c-14.3,34.1-72.8,42.1-130.5,17.8c-57.7-24.3-92.9-71.6-78.6-105.7s72.8-42.1,130.5-17.8
		S663.6,248.6,649.2,282.7z"/>
	<g>
		<path class="st1" d="M202.9,70.7c1.5,2.4-0.4,6.3-2,7.1c-1.5,0.8-2.7,4.3-4.3,4.3c-1.5,0,0,5.9,2.7,7.1c2.7,1.2,2.7,3.1,2.7,4.3
			c0,1.2,3.9,2.4,5.1,3.9c2.5,3.5,2.6,12.1,3.7,13.5c6.8-4.6,2.2-8.7,4.6-10.7c0.9-0.8,4.4-4.6,5.1-4.8c3.6-1.5,2.3,1.5,3-5.6
			c-1.5-1-2.5-2.2-2.5-2.8c0-1.3-1.7-3.5-2.7-2.3c-1,1.2-4.7,0.2-5.2-2.3c-0.5-2.5,2.5-2.4,5.2-4.6s3.1-6.6,0.2-8.9
			s-0.9-3.6,1.2-5.7c2.1-2.2,0.2-3.4-0.9-2.4c-1.1,1-2.8,1.3-3.1-1.1c-0.3-2.4-6.6-2.7-9.1-0.5c-0.8,0.8-2.2,1-3.6,1
			C202.5,64.3,201.9,69.1,202.9,70.7L202.9,70.7z"/>
		<path class="st1" d="M135.7,84.1c0,2.6-0.9,5.8,0.5,6c1.7,0.3,4.3,7.1,1.1,7.1c-1.3,0-9.7-0.8-9.7,0.5c0,1.3-1.9,2.4-3.9,2.4
			c-1.9,0-1.9-0.5-2.2,1.7c-0.2,2.2,0.5,4.1-0.8,4.1s-1.1,1.7-3,1.9c-1.9,0.2-5-0.2-5,1.7c0,6.2-9.3,2.5-9.3,5.2
			c0,1.7-2.8,0.5-4.3,1.3c-1.5,0.8-10.4,6-10.6,6.9c-0.1,0.5,0,4.7,0.2,9c0.4,1.1,62.2,40.7,65.7,44.1c1.8,1.8,4.2,6.1,4.2,6.1
			c5.3,0.5,10.7,2.5,10.7,9.3c22.5-5,14-3.9,28.9-14.5l28.5-17.8c-0.9-3.1-1.8-5.6-3.4-5.6c-1.7,0-2.9-1.5-4.9-1.5
			c-6.8,0-3.5-4.9-5.4-7.8c-3.5-5.2-4.4-3.1-0.1-7.5c0.3-0.3-2.5-5.5-1-7.2c1-1.2,1.5-2.4,0.5-4.6s1.5-4.1,0.2-6.9
			c-2.5-5.7-4.6-5.5-1.5-7.5c-1-1.4-1.2-10.1-3.7-13.5c-1.2-1.5-5.1-2.7-5.1-3.9c0-1.2,0-3.1-2.7-4.3c-2.7-1.2-4.3-7.1-2.7-7.1
			c1.5,0,2.7-3.6,4.3-4.3c1.5-0.8,3.6-4.7,2-7.1c-1-1.5-0.5-6.5,0.1-10.4c-2.6,0-5.5-1-6.3-1.2c-1.2-0.4-4.6,0.5-6.7,0.7
			c-2.2,0.1-7.5,3.6-9.2,1.8c-1.7-1.6-19.9,1.3-24.9,1.5c-5.1,0.2-7.3,5.5-10.3,5.5c-6.6,0-9.7,6.5-12.9,6.5
			C134.2,78.7,135.7,78.7,135.7,84.1L135.7,84.1z"/>
		<path class="st1" d="M220.6,95.4c0,0-7,5-5.6,7.7c0.4,0.8-0.3,3.6-1.2,5.3c-0.9,1.6-4,2.8-4.2,3.8c-0.2,1,1.7,3.3,3,6.1
			c1.3,2.8-1.3,4.8-0.2,6.9c1.1,2.2,0.5,3.4-0.5,4.6c-1.5,1.7,1.3,6.9,1,7.2c-4.3,4.4-3.5,2.2,0.1,7.5c1.9,2.9-1.5,7.8,5.4,7.8
			c1.9,0,3.2,1.5,4.9,1.5c1.5,0,2.5,2.5,3.4,5.6c5.4,0.1,10.7,0.7,13.9,6.1l11.2-6.1l50.6,27.2v-3.6h6.1c0,0,0-60.6,0-65
			c0-4.5-2-7.4,0-9.8c2.3-2.7-1.4-2.5,1.5-9.8c-1.4-1.8-1.7-1.5-9.1-2.6c-5.8-0.9-3.6-4.8-10.1-5.2c-6.5-0.4-14.7,4.8-14.8,7.6
			c-0.1,2.7,3,5.8,0.9,8.7c-2.2,2.8-6.8,3.1-10.2,0.1c-3.4-3-8.2-4.4-12.3-4.4c-4,0-6.8-2.5-6.6-4.7c0.3-2.2-1-3.1-4.3-3.8
			c-3.4-0.7-6.2-3.5-12-2.5c-3.2,0.5-5.8-0.5-7.6-1.6C222.9,97,224.1,93.9,220.6,95.4L220.6,95.4z"/>
		<path class="st1" d="M59.2,164.3c0-1.5,6.9-3.5,6.9-5c0-1.5,0-17.8,0-17.8s21.6,0.5,22.3,0c0.6-0.5-0.2-17.8,0-18.6
			c0.2-0.8,9.1-6,10.6-6.9c1.5-0.8,4.3,0.5,4.3-1.3c0-2.5,9.3,1,9.3-5.2c0-1.9,3-1.5,5-1.7c1.9-0.2,1.7-1.9,3-1.9s0.6-1.9,0.8-4.1
			c0.2-2.2,0.2-1.7,2.2-1.7c1.9,0,3.9-1.1,3.9-2.4c0-1.3,8.5-0.5,9.7-0.5c3.2,0,0.6-6.8-1.1-7.1c-2.1-0.4,1.5-7.9-2.4-12.9
			c-0.3-0.4-0.7-1.2-1.1-2c-2.4,0.1-5.2-1.7-7.6-1.8c-3.5-0.1-8.7,1.6-11.3-1.2c-8.2-9.1-8.5,3.6-13.5,10.7c-2,2.8-7.5,4.8-10.1,4.8
			s-2.9,4-5,5.6s-1.3,4.3-3.7,6.3c-2.5,2-1.3,7.9,0,10.1c1.3,2.2-4.6,8.9-7.8,10.9c-3.4,1.9-4.4,5.6-9.7,6.6
			c-4.8,0.8-6.9,4.5-8.5,8.5c-1.2,3.1-8.6,7.7-8.8,12.1c-0.4,5.4-12.8,17.9-13.7,27H59C59.2,174.7,59.2,165.8,59.2,164.3L59.2,164.3
			z M88.1,131c-0.1-0.2-0.1-0.4-0.3-0.5C88,130.6,88.1,130.8,88.1,131L88.1,131z"/>
		<path class="st1" d="M39,208.4c8.1,1.6,9.3-4.3,14.9,2.8h2.4c2.7,7.5,5.6,4.6,7.8,9.2c2-0.1,3.6-0.7,3.6-2.1
			c0-1.8,0.9-4.2,3.8-1.5c3,2.6,3,0.3,3.6-0.6c0.6-0.9,2.6,0.3,4.5,0.3s4.2-1.2,4.2-1.2s24.7,0.3,25.9-0.3c1.2-0.6,0.9-5.6,0.9-5.6
			l-2.1-2.1l-6.3-58.6h11.2c-11.8-7.8-24.1-15.4-24.8-16.5c0.1,4.6,0.2,9.3-0.2,9.6c-0.6,0.5-22.3,0-22.3,0s0,16.2,0,17.8
			c0,1.5-6.9,3.5-6.9,5c0,1.5,0,10.4,0,10.4h-26c-0.4,4.3,2.2,5.7,3.7,7.5c2.1,2.4-1.5,6.5,1.5,10.7c3,4.2-0.7,10.7-2.2,13
			c-0.8,1.3-0.9,3.5-1.1,5.7C37.4,211,36.6,207.8,39,208.4L39,208.4z"/>
		<path class="st1" d="M374.1,114.1l-4.7-11.7c-2,3.1-3.1-0.5-7.8,0.6c-3,0.8-5.4-0.3-8.4-1.7c-2.9-1.5-12.6,0.4-13.8,2.3
			c-3,4.4-10.5-1.9-19.6-2.7c-5-0.5-9.1-1.2-10-2.4c-2.7,7.4,0.9,7.1-1.5,9.8c-2,2.5,0,5.3,0,9.8c0,3.1,0,33,0,51.1h40.4
			c0,0,1.2-0.8,2.4-1.5c1.2-0.8,3.1,1.2,3.1,1.2h8.7c0,0,1.5,2,3.6,2c2,0,0.8-3.1,3.9-3.1c3.1,0,2.4-4.7,4.3-4.7
			c2.2,0,1.5,0.4,3.7-2.6c-0.2-0.8-0.2-1.7,0-2.6c0.5-3.1-1.6-2.9-3-7.4c-1.4-4.4-6.8-11-7.1-13.6c-0.2-2.5-3.3-4-3.1-6.7
			c0.1-2.7-1.5-3-4.6-7.4c-3-4.3-3.9-11.8-3-12.1c1.5-0.5,6.7,17.2,11.1,17.2c2.5,0,3.5-11.5,4.2-9.1L374.1,114.1L374.1,114.1z"/>
		<path class="st1" d="M383.9,81.9c1.3-1.1,2-5.4-3.2-5.2c-0.9,5.2-2.1,4.6-5,10.8l3.1,1.4C380.4,86,382.8,82.7,383.9,81.9
			L383.9,81.9z"/>
		<path class="st1" d="M383.9,81.9c-1,0.9-3.5,4.1-5.1,7l0.4,0.2l0.5,2.4l6,3.1c0,0,4.5-3.1,6.3-3.4c1.8-0.3,22.8-11.6,22.8-11.6
			c2.8-2.6,0.2-6.8,2.1-9.2c1-1.3-1.3-3.4-0.5-5.5c0.8-2.1,4.2-3.1,4.2-3.1l3.9-2.9c-6-1.8-2.4,0.7-9.9,0.3
			c-3.9-0.3-4.7,2.6-8.9,2.6c-4.2,0-6.6,1-7.6-0.3c-1.9-2.4-6.1,4.1-10.2,0.8c-1.3-1-2.4,0.3-2.6,1.5c-0.3,1.2,0.2,4-3.9,4.6
			c-0.3,1.2-0.7,2.5-0.1,3.4c1,1.3-0.2,2.8-0.5,4.9C385.9,76.5,385.1,80.8,383.9,81.9L383.9,81.9z"/>
		<path class="st1" d="M376.5,93.3c-0.1,0-3.7,4.2,1.1,9l0.9-9C377.5,93.3,376.7,93.3,376.5,93.3L376.5,93.3z"/>
		<path class="st1" d="M378.5,93.3c0.2-1.2,0.4-2.9,0.5-4.4l-3.4-1.5c-2,4.4-0.9,6.6-6.3,14.9l4.7,11.7l-0.3,0.7l0,0
			c0.2,0.1,0.5,0.3,0.7,0.4c1.5-10.3,2.5-8.7,3-12.8"/>
		<path class="st1" d="M400.4,87.1c-7.8,4-10.4,4.4-14.8,7.4l-6-3.1l-0.5-2.4l-0.1-0.1c-0.4,3.3-1.7,15.8-2.4,16.7
			c-0.7,0.9-1.5,5.6-2.1,9.7c2.2,1.2,4.7,2.5,5.9,2.5c2.4,0.3,5.3-2.4,5.3-3.9s2.1-1.8,4.2-1.8c2.1,0,2.4-2.4,3.9-3.2
			s-3.4-5.2-5-5.7c-1.5-0.5,1.3-3.9,6.6-4.2c5.5-0.3,3.6-2.1,7.2-2.1L400.4,87.1L400.4,87.1z"/>
		<path class="st2" d="M456.3,120.1c0,0-10.2-1.3-11.7-1.3c-8.6,0-14.9-10-23.9-14.4c-2.1-1-10.7-7.3-13.1-7.6
			c-8.7-1-6.8,1.8-12.3,2.1c-5.3,0.3-8.1,3.6-6.6,4.2c1.5,0.5,6.6,5,5,5.7c-1.5,0.8-1.8,3.2-3.9,3.2c-2.1,0-4.2,0.3-4.2,1.8
			c0,1.5-2.9,4.2-5.3,3.9c-1.4-0.2-4.3-1.6-6.6-2.9c-1.5,4.2-0.9,10.9,0.2,11.2c0.7,0.3,14.8,17.9,15,21.5c0.1,2.3,1.2,4.7,5.1,7.4
			c3.9,2.6,3.9,5.9,6,7.5c3.7,2.8-1,13.6,7.1,18.5c9.5,5.8,6.7,11.8,13.8,18.9c2.3,2.3,1,3.5,2.3,5.1c0.6,0.8,1.5,2.3,2.2,3.8
			c1.7-0.8,3-1.5,3.1-1.6c0.3-0.6-1.8-4.6,2.6-6.1c1.1-0.4,2.5,1.2,4.9,0.7c2.5-0.4,7.6,0.2,8.1,0.7c0.5,0.5,7.6,0.2,9.3,1.5
			c1.7,1.4,3.4,0.9,4.6-1.7c1.1-2.6,9.1-8.4,10.2-8.9s9.7,0,13.1-0.7c3.4-0.7,25.8-7.9,26.7-8.7c0.9-0.7,4.6-12.5,4.6-13.8
			s-1.7-4.9-3.4-4.7c-1.7,0.2-15.8-1.4-16.7-1.9c-0.7-0.5-4.5-3.3-5-7.1c-1.1-0.8-2.4-2.6-2.7-4.3c-1.6,0.2-4.1-0.2-5.6-3.8
			c-1.3-0.9-4.7-5.7-3.6-7.1c3.4-3.8-9.4-11.5-9.7-15c-0.1-0.6-0.4-1.6-0.8-2.8C458.6,122.9,460.6,123.8,456.3,120.1L456.3,120.1z"
			/>
		<path class="st2" d="M514.2,149.3v5l-4.2,5.3l-2.3,5.6c0.6,0,1.1,0,1.4,0c1.7-0.2,3.4,3.4,3.4,4.7s-3.6,13.1-4.6,13.8
			c-0.7,0.5-12.5,4.5-20.3,6.8c1.7,3.6,5.1,10.5,8.1,16.8c0.5-0.2,1.1-0.5,1.6-0.8c3.7-2.2,7.9-1.1,10.7-1.8
			c2.8-0.8,0.1-3.1,2.5-5.2c2.5-2.1,6-0.5,7.3-1.2c1.3-0.7,2.2-5.2,4.3-6.1c2.2-0.9,4.6-0.3,4.2-2.2c-0.3-1.8,0.2-8.6,2.3-8.9
			c2.1-0.4,5.3-2.5,5.4-3.7c0.2-2.2,10-10.6,5-11.4c-1.8-0.3-4.8-5.5-5.6-6.9c-1.4-2.5-11.7,1.6-14.7-11.2
			C516.2,149.7,517.3,149.3,514.2,149.3L514.2,149.3L514.2,149.3z"/>
		<path class="st2" d="M484.7,152.1c-0.5-2,3.6-9.2-0.6-10.4c-4-1.1-3.8,7.3-4.9,6.6C480.6,151.9,483,152.3,484.7,152.1L484.7,152.1
			z"/>
		<path class="st2" d="M492.4,163.5c0.8,0.5,11.4,1.6,15.3,1.9l2.3-5.6l4.2-5.3v-5c3.1,0,2,0.3,4.8-1.3c-1-4.1-1.1-8.2-1.8-8.3
			c-1.2-0.1-6,5.1-7.9,8.9c-2,3.8-7.6,6.7-12.6,5.9c-7.4-1.4-6.7,3.6-9.3,1.6C487.9,160.2,491.7,162.9,492.4,163.5L492.4,163.5z"/>
		<path class="st2" d="M455.1,113.7c1.8-1.9,2.5-4.6,7.4,0c0.6-0.6,1.8-1.3,2.9-1.5c-1.7-1.8-3.9-3.9-3.7-5.2
			c0.3-2.1-2.1-3.2-2.4-4.5c-0.3-1.3,1.5-3.4,0.5-4.5c-1-1.1-1.3-3.6-3.1-3.9s-7.6-3.1-7.4-5c0.3-1.8-2.1-3.2-3.1-3.6
			c-1-0.5-2.1-5.2-0.8-6c1.3-0.8,1-5.3,2.6-5.3c1.5,0,0.3-2.4,0.8-3.9c1.1-3.2-6.3-1.4-6.3-6.3c0-1.8-2.6-4.5-2.4-5.2
			c-0.5,3.5-5.5-1.9-7-1.1c-1.5,0.8-2.7-1.5-5.9-1.2c-2,0.3-1.9,1.3-2.9,2.3h0.1l-3.9,2.9c0,0-3.4,1-4.2,3.1
			c-0.8,2.1,1.5,4.2,0.5,5.5c-1.9,2.4,0.7,6.6-2.1,9.2c0,0-7.8,4.2-14.3,7.6l2.1,9.7c2.5,0,2.9-0.3,5.1,0c3.7,0.5,25.5,16.2,29,19.4
			c3.3,2.9,9.7,2.7,15.6,3.5C453.2,117.4,454.5,114.4,455.1,113.7L455.1,113.7z"/>
		<path class="st2" d="M456.3,120.1c4.3,3.6,2.2,2.8,8.7,3.2c-2.1-5.5-4.1-8-2.6-9.5c-5.5-5-7-1.9-10.2,5.8
			C454.5,119.9,456.3,120.1,456.3,120.1L456.3,120.1z"/>
		<path class="st2" d="M481.2,192.6c-3.4,0.7-11.9,0.2-13.1,0.7c-1.2,0.5-9.1,6.3-10.2,8.9c-1.2,2.6-2.8,3-4.6,1.7
			c-1.7-1.4-8.7-0.9-9.3-1.5c-0.5-0.5-5.6-1.1-8.1-0.7c-3.7,0.5-4.2-3-7.7,1.7c-0.5,0.7,0.5,2.8,0.2,3.6c-0.1,0.2-1.3,0.8-3.1,1.6
			c1.9,4.7-1.7,8.4,2.5,14.7c2.1,3,1.3,8.7,2.3,9.7s8.7,0.9,12-1.4c6.4-4.2,12.1-1.3,15.8-6.2c0.9-1.2,4.9-1.3,6.6-1.1
			c1.6,0.2,3.4-1.6,5.2-3.6c1.8-1.8,7.7-2.6,14-4.6c6.3-2,4.9-4.9,6.4-6.6c1.3-1.5,3-1,5.6-2.1c-3-6.3-6.5-13.2-8.1-16.8
			C484.7,191.7,482.2,192.4,481.2,192.6L481.2,192.6z"/>
		<path class="st2" d="M475.4,130.2c0.3,0.6,0.9-0.6,1.2,1c2.5-1.6,1.3-0.3,3.2-3.9c0.1-1.8-0.4-5.6-1.5-2.1
			C477.6,126.8,475,124.6,475.4,130.2L475.4,130.2z"/>
		<path class="st1" d="M374.7,162.8c-1.9,0-1.2,4.7-4.3,4.7c-3.1,0-2,3.1-3.9,3.1c-2,0-3.6-2-3.6-2h-8.7c0,0-2-2-3.1-1.2
			c-1.2,0.8-2.4,1.5-2.4,1.5h-40.4c0,8.1,0,13.9,0,13.9h-6.1c0,2.1,0.8,28-0.8,28.6c-1.2,0.4-5.7,1.6-5.7,3.6c0,2-0.4,3.6-2.5,4.1
			c-2,0.4,0,4.9-2.8,4.9s1.2,3.3-0.5,4.9s-1.2,3.6,0.8,3.6c3.6,0-1.8,5.8,4.5,9l-0.8,2.8c0.5,0.6,3.6,4.1,5.2,7.1
			c1.6,0.1,3.5,0,4-0.4s1.5,0.2,1.8,0.1c0.1-0.3,0.1-0.2,0.2-0.4c0.1,0,0.4-0.5,0.5-0.6c0.2-0.1,0.3-0.6,0.5-0.7
			c1.1-1.2,0.6-1.5,1-2.5c0.2,0,0.1,0,0.2-0.2c0.7,0,4.7-0.3,4.8-0.1c0.4,0.1,0.6,1.8,1.1,2c0.1,0.2,0.1,0.1,0.1,0.3
			c0.3,0.1,1.1,1.9,1.7,2.3l0.3,0.4c0.5,0.2,0,0.6,1,0.8c2.2,0.5,2.6-0.4,4-0.2c0.1-0.1,0.1-0.1,0.1-0.3c0.5-0.2,2.4,0,3-0.1
			c0.1,0.2,2.8,1.3,3,1.3c0.1,0.1,0.1,0.1,0.2,0.2c1.2-0.3,3.7,1.1,4.5-0.2c0.4,0,0.1-0.3,0.5-0.4c0-0.2,0.1-0.1,0.1-0.3
			c0.1,0,0.3-0.2,0.3-0.3c0.2-0.1,0.1-0.1,0.3-0.1c0-0.2,0.5-0.9,0.6-0.9c0.1-0.3,1.3-0.5,1.8-0.7c2.6,1.4,1-2.3,2.1-2.2
			c0.2-0.5,2.5-1.3,3.5-0.3c2.1,0.7,4.4,3.6,7.3,2.9c0.1,0,0.6-0.3,0.8-0.3c0.1-0.1,0.1-0.1,0.1-0.3c0.2,0,0.2-0.1,0.4-0.2
			c0-0.2,0.4-0.8,0.6-0.8c0.5-1.4,2.1-3.3,2.3-3.8c0.2,0,1.2-1.1,1.3-1.5c0.2,0,0.1-0.1,0.3-0.1c0.1-0.2,0.8-0.5,0.9-0.8
			c0.2,0,0.5-0.1,0.5-0.4c0.5-0.2,0.6-0.6,0.8-0.7c0-1.1-1.2-1.4-0.6-3.6c0.3-1.3-0.5-1.2-0.7-1.5c-0.1,0-0.2-0.1-0.2-0.2
			c-0.4-0.1-0.3-0.4-1-1c1-0.1,3.9,0.4,3.9-0.4c0-0.5-0.1-0.3,0.2-0.5c0-0.2,0.1-0.5,0-0.6c-0.2-0.5,1.7-0.3,3.1-0.3
			c0,0.5-0.3,2.7-0.3,2.7c-0.2,0.2-0.2,7.2,1.2,7.6c0.3,0.8,2.5,0.5,2.7,1.8c0,0.1,0.2,0.2,0.4,0.3c0.1,0.5,0.3,0.4,0.4,0.5
			c0.4,0.2,1.6,2.6,0.6,3.5c-0.5,0.4-0.4,1.5-0.4,2c0.1,0,1.4,0.1,2.5,0.2c0.4-2.3,3.2-4.6,2-5.7c-1.2-1.2,1.3-1.6,2.9-2.9
			c1.6-1.3,0.4-4.9,2.1-6.6c1.6-1.6,2.8-4.9,4.1-4.9c1.3,0,2.9-1.6,2.9-3.3c0-1.6,2.9-4.9,2.5-7.8c-0.5-2.9-1.6-6.6,0.4-9
			c2.1-2.5,2.8-4.6,2.5-6.6c-0.5-2.7,6.2-3.6,10-9.6c-4.4-5.4-8-3.9-8-14.2c0-19.9-9.7-15.4-10.9-22.9
			C376.2,163.3,376.7,162.8,374.7,162.8L374.7,162.8z"/>
	</g>
</g>
</svg>
