<?xml version="1.0" encoding="utf-8"?>
<!-- Generator: Adobe Illustrator 23.0.4, SVG Export Plug-In . SVG Version: 6.00 Build 0)  -->
<svg version="1.1" id="Layer_1" xmlns="http://www.w3.org/2000/svg" xmlns:xlink="http://www.w3.org/1999/xlink" x="0px" y="0px"
	 viewBox="0 0 1554 425" style="enable-background:new 0 0 1554 425;" xml:space="preserve">
<style type="text/css">
	.st0{fill:none;}
	.st1{fill:#FFFFFF;}
	.st2{fill:url(#SVGID_1_);}
	.st3{fill:#46B9DF;}
	.st4{fill:url(#SVGID_2_);}
	.st5{fill:#0688C4;}
	.st6{fill:url(#SVGID_3_);}
	.st7{fill:#0175B7;}
	.st8{fill:url(#SVGID_4_);}
	.st9{fill:#E08026;}
	.st10{fill:url(#SVGID_5_);}
	.st11{fill:#BC4B27;}
	.st12{fill:url(#SVGID_6_);}
	.st13{fill:#93221E;}
	.st14{fill:url(#SVGID_7_);}
	.st15{fill:#7F1416;}
	.st16{fill:url(#SVGID_8_);}
	.st17{fill:url(#SVGID_9_);}
	.st18{fill:url(#SVGID_10_);}
	.st19{fill:url(#SVGID_11_);}
	.st20{fill:url(#SVGID_12_);}
	.st21{fill:url(#SVGID_13_);}
	.st22{fill:url(#SVGID_14_);}
	.st23{fill:url(#SVGID_15_);}
	.st24{fill:url(#SVGID_16_);}
	.st25{fill:url(#SVGID_17_);}
	.st26{fill:url(#SVGID_18_);}
	.st27{fill:url(#SVGID_19_);}
	.st28{fill:url(#SVGID_20_);}
	.st29{fill:url(#SVGID_21_);}
	.st30{fill:url(#SVGID_22_);}
	.st31{fill:url(#SVGID_23_);}
	.st32{fill:url(#SVGID_24_);}
	.st33{fill:url(#SVGID_25_);}
	.st34{fill:url(#SVGID_26_);}
	.st35{fill:url(#SVGID_27_);}
	.st36{fill:url(#SVGID_28_);}
	.st37{fill:url(#SVGID_29_);}
	.st38{fill:url(#SVGID_30_);}
	.st39{fill:url(#SVGID_31_);}
	.st40{fill:url(#SVGID_32_);}
	.st41{fill:url(#SVGID_33_);}
	.st42{fill:url(#SVGID_34_);}
	.st43{fill:url(#SVGID_35_);}
	.st44{fill:url(#SVGID_36_);}
	.st45{fill:url(#SVGID_37_);}
	.st46{fill:url(#SVGID_38_);}
	.st47{fill:url(#SVGID_39_);}
	.st48{fill:url(#SVGID_40_);}
	.st49{fill:url(#SVGID_41_);}
	.st50{fill:url(#SVGID_42_);}
	.st51{fill:url(#SVGID_43_);}
	.st52{fill:url(#SVGID_44_);}
	.st53{fill:url(#SVGID_45_);}
	.st54{fill:url(#SVGID_46_);}
	.st55{fill:url(#SVGID_47_);}
	.st56{fill:url(#SVGID_48_);}
	.st57{fill:url(#SVGID_49_);}
	.st58{fill:url(#SVGID_50_);}
	.st59{fill:url(#SVGID_51_);}
	.st60{fill:url(#SVGID_52_);}
	.st61{fill:url(#SVGID_53_);}
	.st62{fill:url(#SVGID_54_);}
	.st63{fill:url(#SVGID_55_);}
	.st64{fill:url(#SVGID_56_);}
	.st65{fill:#761113;}
	.st66{fill:#DBD5D7;}
	.st67{fill:#9299A0;}
</style>
<title>Artboard 1</title>
<g>
	<path class="st0" d="M848.3,333.9c-1.5,0.3-3,1-4.2,2c-1,0.9-1.8,2.1-2.2,3.4c-0.4,1.5-0.6,3.1-0.6,4.7v1.3c0,3.1,0.8,5.1,2.4,6
		s4,1.3,7.3,1.3c2.3,0,4.5-0.3,6.7-1c2-0.6,4-1.4,5.9-2.3v-16.1H855C852.7,333.2,850.5,333.5,848.3,333.9z"/>
	<path class="st0" d="M762.4,118.8c-1-1-2.3-1.9-3.7-2.4c-2-0.7-4.2-1.1-6.3-1c-4.3-0.1-8.6,0.5-12.6,1.9c-1.8,0.7-3.6,1.5-5.3,2.3
		c-1.4,0.7-1.9,2.4-1.2,3.7c0.1,0.1,0.2,0.3,0.2,0.4c0.8,1.1,1.7,2.3,2.7,3.7c1.7,2.4,3.4,4.8,5.3,7.2c1.8,2.4,3.6,4.7,5.4,6.9
		c1.1,1.4,2.2,2.6,3.3,3.7c1,1.1,2.7,1.1,3.8,0.2c1.1-0.9,2.2-2,3.1-3.1c1.5-1.8,2.9-3.8,4-5.9c1.1-1.9,1.9-4,2.6-6.1
		c0.6-1.7,0.9-3.4,0.9-5.2c0-1.1-0.1-2.2-0.4-3.3C763.8,120.8,763.2,119.7,762.4,118.8z"/>
	<path class="st0" d="M1082,300.4c-3.9-0.2-7.7,1.4-10.3,4.3c-2.6,2.9-3.9,7.2-3.9,12.8v0.3h28.1v-0.3c0-5.8-1.2-10.1-3.7-12.9
		C1089.8,301.8,1086.4,300.4,1082,300.4z"/>
	<path class="st0" d="M485.9,276.3c-0.2-0.4-0.7-0.5-1.4-0.5c-1.1,0-1.9,0.8-2.2,2.3l-9.4,39.7H496l-9.5-39.7
		C486.4,277.5,486.2,276.9,485.9,276.3z"/>
	<path class="st0" d="M638,333.9c-1.5,0.3-3,1-4.2,2c-1,0.9-1.8,2.1-2.2,3.4c-0.4,1.5-0.6,3.1-0.6,4.7v1.3c0,3.1,0.8,5.1,2.4,6
		c1.6,0.9,4,1.3,7.3,1.3c2.3,0,4.5-0.3,6.7-1c2-0.6,4-1.4,6-2.3v-16.1h-8.8C642.4,333.2,640.2,333.5,638,333.9z"/>
	<path class="st0" d="M739.2,306.5c-1-1.7-2.4-3-4.2-3.9c-2.1-1-4.4-1.5-6.8-1.4c-1.9,0-4,0.1-6.3,0.2c-2.4,0.2-4.5,0.3-6.3,0.5v48
		c1.5,0.2,3.3,0.4,5.5,0.6c2.2,0.2,4.6,0.3,7.2,0.3c2.3,0.1,4.7-0.4,6.8-1.4c1.7-0.9,3.2-2.3,4.2-3.9c1.1-1.9,1.8-3.9,2.2-6
		c0.4-2.5,0.6-5.1,0.6-7.6v-12c0-2.5-0.2-5-0.6-7.5C741,310.4,740.3,308.3,739.2,306.5z"/>
	<path class="st0" d="M1164,332.9c-1.5,0.4-3,1.1-4.2,2.1c-1,1-1.8,2.2-2.2,3.5c-0.4,1.6-0.6,3.3-0.6,4.9v1.4c0,3.3,0.8,5.4,2.4,6.3
		c1.6,0.9,4,1.4,7.3,1.4c2.3,0,4.5-0.3,6.7-1c2.1-0.6,4.1-1.4,6-2.4v-17h-8.8C1168.5,332.1,1166.2,332.4,1164,332.9z"/>
	<path class="st0" d="M1480.5,126.2c-1.5-2.8-3.8-5.2-6.5-7c-3.2-1.9-6.8-2.8-10.5-2.7c-4.5,0-9,1.1-13,3.2
		c-4.3,2.3-8.3,5.2-11.7,8.7c-3.8,3.9-7.3,8.2-10.2,12.8c-2.4,3.7-4.5,7.5-6.5,11.4c-0.7,1.5-0.1,3.2,1.3,3.9
		c0.4,0.2,0.8,0.3,1.3,0.3h57c1.6,0,2.9-1.3,2.9-2.9c0,0,0,0,0,0v-7.2c0-3.6-0.3-7.2-0.9-10.7
		C1483.3,132.6,1482.2,129.3,1480.5,126.2z"/>
	<path class="st0" d="M1314.8,123.4c-1-2-2.5-3.7-4.4-4.9c-2.2-1.3-4.8-2-7.4-1.9c-2.5-0.1-5,0.5-7.3,1.6c-1.9,1-3.5,2.4-4.7,4.2
		c-1.2,1.8-2.1,3.8-2.5,5.9c-0.5,2.2-0.8,4.5-0.8,6.8c-0.1,3.2,0.4,6.5,1.4,9.6c0.8,2.5,2,4.8,3.7,6.8c1.5,1.8,3.4,3.2,5.5,4.1
		c2.2,0.9,4.5,1.3,6.8,1.3h12.2v-18.4c0-2.7-0.2-5.3-0.5-8C1316.6,127.9,1315.9,125.6,1314.8,123.4z"/>
	<path class="st0" d="M1413,300.4c-3.9-0.2-7.7,1.4-10.3,4.3c-2.6,2.9-3.9,7.2-3.9,12.8v0.6h28.1v-0.6c0-5.8-1.2-10.1-3.7-12.9
		C1420.8,301.8,1417.4,300.4,1413,300.4z"/>
	<path class="st1" d="M1441.7,291.9c-3.3-3.7-7.4-6.6-12-8.5c-5.3-2.1-10.9-3.2-16.6-3.1c-5.6-0.1-11.2,0.9-16.5,2.9
		c-4.6,1.8-8.8,4.5-12.3,8.1c-3.4,3.7-6.1,8-7.6,12.8c-1.8,5.4-2.7,11.1-2.6,16.8v10.8c0,7.4,1.1,13.7,3.4,18.8
		c2,4.7,5.1,8.9,9,12.3c3.7,3.1,7.9,5.3,12.5,6.6c4.5,1.3,9.2,2,13.9,2c5.7,0.1,11.5-0.3,17.2-0.9c4.9-0.6,9.7-1.6,14.5-2.8
		c1-0.1,2-0.6,2.6-1.4c0.5-0.9,0.7-1.8,0.6-2.8v-11.8c0-1.6-1-2.5-2.9-2.5h-0.5c-1.6,0.2-3.5,0.4-5.9,0.5s-4.9,0.3-7.7,0.4l-8.3,0.3
		c-2.8,0.1-5.4,0.1-7.9,0.1c-2.6,0.1-5.2-0.4-7.7-1.4c-1.9-0.8-3.6-2.1-4.9-3.7c-1.3-1.6-2.2-3.4-2.6-5.4c-0.5-2.1-0.8-4.2-0.8-6.3
		v-0.3h49.2c2.2,0,3.3-1.2,3.2-3.7v-9c0.1-5.5-0.8-11-2.4-16.2C1447.4,299.9,1445,295.6,1441.7,291.9z M1426.9,318.1h-28.1v-0.6
		c0-5.7,1.3-9.9,3.9-12.8c2.6-2.9,6.4-4.5,10.3-4.3c4.3,0,7.7,1.4,10.2,4.2c2.5,2.8,3.7,7.1,3.7,12.9V318.1z"/>
	<path class="st1" d="M1194.4,287.6c-3.3-2.7-7.2-4.6-11.3-5.6c-4.9-1.2-10-1.8-15.1-1.8c-5,0-10.1,0.4-15.1,1.1
		c-4.9,0.7-8.8,1.4-11.7,2.2c-2,0.5-2.9,1.6-2.9,3.4v12.5c-0.1,0.8,0.2,1.6,0.8,2.2c0.6,0.4,1.3,0.7,2,0.6h0.8l4.6-0.4
		c1.8-0.2,3.9-0.3,6.2-0.4c2.3-0.1,4.7-0.2,7.3-0.2s5-0.1,7.5-0.1c3.6,0,6.4,0.7,8.5,2c2.1,1.3,3.1,4.2,3.1,8.6v5.6h-8.3
		c-13.3,0-23,2.1-29,6.3c-6,4.2-9,10.8-9,19.9v1.4c-0.1,4.3,0.6,8.6,2.2,12.7c1.3,3.2,3.4,6,6,8.2c2.5,2.1,5.3,3.6,8.4,4.4
		c3.2,0.9,6.5,1.3,9.8,1.3c4.1,0.1,8.1-0.5,12-1.9c3.4-1.3,6.6-3,9.5-5.1v2.5c0,1.7,1.4,3,3.1,3.1h17.2c1.7,0,3.1-1.4,3.1-3.1v-55.1
		c0.1-4.9-0.7-9.8-2.5-14.4C1200,293.6,1197.5,290.2,1194.4,287.6z M1179.5,349.2c-1.9,1-3.9,1.8-6,2.4c-2.2,0.7-4.4,1-6.7,1
		c-3.3,0-5.7-0.5-7.3-1.4c-1.6-0.9-2.4-3-2.4-6.3v-1.4c0-1.7,0.2-3.3,0.6-4.9c0.4-1.4,1.1-2.6,2.2-3.5c1.2-1,2.6-1.7,4.2-2.1
		c2.2-0.5,4.4-0.7,6.7-0.7h8.8L1179.5,349.2z"/>
	<path class="st1" d="M1110.7,291.9c-3.3-3.7-7.4-6.6-12-8.5c-5.3-2.1-10.9-3.2-16.6-3.1c-5.6-0.1-11.2,0.9-16.5,2.9
		c-4.6,1.8-8.8,4.5-12.3,8.1c-3.5,3.7-6.1,8-7.7,12.8c-1.8,5.4-2.7,11.1-2.6,16.8v10.8c0,7.4,1.1,13.7,3.4,18.8
		c2,4.7,5.1,8.9,9,12.3c3.7,3.1,7.9,5.3,12.5,6.6c4.5,1.3,9.2,2,13.9,2c5.7,0.1,11.5-0.3,17.2-0.9c4.9-0.6,9.7-1.6,14.5-2.8
		c1-0.1,1.9-0.6,2.6-1.4c0.5-0.9,0.7-1.8,0.6-2.8v-11.8c0-1.6-1-2.5-2.9-2.5h-0.5c-1.5,0.2-3.5,0.4-5.9,0.5
		c-2.4,0.2-4.9,0.3-7.7,0.4l-8.3,0.3c-2.8,0.1-5.4,0.1-7.9,0.1c-2.6,0.1-5.2-0.4-7.7-1.4c-1.9-0.8-3.6-2.1-4.9-3.7
		c-1.3-1.6-2.2-3.4-2.6-5.4c-0.5-2.1-0.8-4.2-0.8-6.3v-0.3h49.3c2.2,0,3.2-1.2,3.2-3.7v-9c0.1-5.5-0.7-11-2.4-16.2
		C1116.4,299.9,1114,295.6,1110.7,291.9z M1095.9,317.8h-28.1v-0.3c0-5.7,1.3-9.9,3.9-12.8c2.6-2.9,6.4-4.5,10.4-4.3
		c4.3,0,7.7,1.4,10.2,4.2c2.5,2.8,3.7,7.1,3.7,12.9L1095.9,317.8z"/>
	<path class="st1" d="M533,366.8L510,271c-0.7-3.2-2.1-6.3-4-9c-1.6-2.2-3.7-3.9-6.1-5.2c-2.3-1.2-4.8-2-7.4-2.4
		c-2.6-0.4-5.3-0.6-8-0.6c-2.7,0-5.4,0.2-8,0.6c-2.6,0.4-5.1,1.2-7.5,2.4c-2.4,1.2-4.5,3-6.1,5.2c-1.9,2.7-3.3,5.8-4,9l-23,95.8
		c0,0.2,0,0.3-0.1,0.5c-0.1,0.1-0.1,0.2-0.1,0.3c0,1.6,0.9,2.5,2.6,2.5H460c0.7,0,1.5-0.3,2-0.8c0.5-0.6,0.9-1.2,1.1-2l5.6-28.3
		h31.6l5.6,28.3c0.2,0.8,0.5,1.4,1.1,2c0.5,0.5,1.3,0.8,2,0.8h21.6c1.8,0,2.6-0.8,2.6-2.5c0-0.1,0-0.2-0.1-0.3
		C533.1,367.1,533,367,533,366.8z M472.9,317.8l9.4-39.7c0.3-1.5,1-2.3,2.2-2.3c0.7,0,1.2,0.2,1.4,0.5c0.3,0.6,0.5,1.2,0.6,1.8
		l9.5,39.7H472.9z"/>
	<path class="st1" d="M878.6,287.6c-3.3-2.7-7.2-4.6-11.4-5.6c-4.9-1.2-10-1.8-15.1-1.8c-5,0-10.1,0.4-15.1,1.1
		c-4.9,0.7-8.8,1.4-11.7,2.2c-2,0.5-2.9,1.6-2.9,3.4v12.5c-0.1,0.8,0.2,1.6,0.8,2.2c0.6,0.4,1.3,0.7,2,0.6h0.8l4.6-0.4
		c1.9-0.2,3.9-0.3,6.3-0.4s4.7-0.2,7.3-0.2s5-0.1,7.5-0.1c3.6,0,6.4,0.7,8.5,2c2.1,1.3,3.1,4.2,3.1,8.6v5.6h-8.3
		c-13.3,0-23,2.1-29,6.3c-6,4.2-9,10.8-9,19.9v1.4c-0.1,4.3,0.6,8.6,2.2,12.7c1.3,3.2,3.4,6,6,8.2c2.5,2.1,5.3,3.6,8.4,4.4
		c3.2,0.9,6.5,1.3,9.8,1.3c4.1,0.1,8.1-0.5,12-1.9c3.4-1.3,6.6-3,9.5-5.1v2.5c0,0.8,0.3,1.6,0.9,2.2c0.6,0.6,1.3,0.9,2.2,0.9h17.3
		c1.7,0,3-1.4,3.1-3.1v-55.1c0.1-4.9-0.7-9.8-2.5-14.4C884.2,293.6,881.8,290.2,878.6,287.6z M863.8,349.4c-1.9,0.9-3.9,1.7-5.9,2.3
		c-2.2,0.6-4.4,1-6.7,1c-3.3,0-5.7-0.4-7.3-1.3s-2.4-2.9-2.4-6v-1.3c0-1.6,0.2-3.2,0.6-4.7c0.4-1.3,1.1-2.5,2.2-3.4
		c1.2-1,2.7-1.7,4.2-2c2.2-0.5,4.4-0.7,6.6-0.7h8.8V349.4z"/>
	<path class="st1" d="M728.2,280.3c-1.5,0-3.5,0.1-5.8,0.3c-2.3,0.2-4.6,0.5-6.9,0.8v-26.7c0-0.8-0.3-1.6-0.9-2.2
		c-0.6-0.6-1.3-0.9-2.2-0.9h-18.7c-0.8,0-1.6,0.3-2.2,0.9c-0.6,0.5-1,1.3-1,2.2v108.3c-0.1,1,0.2,2,0.8,2.8c0.6,0.6,1.9,1.2,3.9,1.7
		c10.8,2.6,21.8,4,32.9,4c12.6,0,22.2-3.5,28.8-10.4c6.6-6.9,10-16.6,10-29.2v-12c0-12.1-3.2-21.8-9.6-28.9S741.3,280.3,728.2,280.3
		z M742,331.9c0,2.6-0.2,5.1-0.6,7.6c-0.4,2.1-1.1,4.1-2.2,6c-1,1.7-2.4,3-4.2,3.9c-2.1,1-4.4,1.5-6.8,1.4c-2.6,0-5-0.1-7.2-0.3
		s-4-0.4-5.5-0.6v-48c1.9-0.2,4-0.4,6.3-0.5c2.4-0.2,4.5-0.2,6.3-0.2c2.3-0.1,4.7,0.4,6.8,1.4c1.7,0.9,3.2,2.3,4.2,3.9
		c1.1,1.8,1.8,3.9,2.2,6c0.4,2.5,0.6,5,0.6,7.5V331.9z"/>
	<path class="st1" d="M668.3,287.6c-3.3-2.7-7.2-4.6-11.4-5.6c-4.9-1.2-10-1.8-15.1-1.8c-5,0-10.1,0.4-15.1,1.1
		c-4.9,0.7-8.8,1.4-11.7,2.2c-2,0.5-2.9,1.7-2.9,3.4v12.5c-0.1,0.8,0.2,1.6,0.8,2.2c0.6,0.4,1.3,0.7,2,0.6h0.8l4.6-0.4
		c1.9-0.2,3.9-0.3,6.3-0.4s4.7-0.2,7.3-0.2c2.5-0.1,5-0.1,7.5-0.1c3.6,0,6.4,0.7,8.5,2c2.1,1.3,3.1,4.2,3.1,8.6v5.6h-8.3
		c-13.3,0-23,2.1-29,6.3c-6,4.2-9,10.8-9,19.9v1.4c-0.1,4.3,0.6,8.6,2.2,12.7c1.3,3.2,3.4,6,6,8.2c2.5,2.1,5.3,3.6,8.4,4.4
		c3.2,0.9,6.5,1.3,9.8,1.3c4.1,0.1,8.1-0.5,12-1.9c3.4-1.3,6.6-3,9.5-5.1v2.5c0,1.7,1.4,3,3.1,3.1H675c1.7,0,3-1.4,3.1-3.1v-55.1
		c0.1-4.9-0.7-9.8-2.5-14.4C673.9,293.6,671.4,290.2,668.3,287.6z M653.4,349.4c-1.9,0.9-3.9,1.7-5.9,2.3c-2.2,0.6-4.4,1-6.7,1
		c-3.3,0-5.8-0.4-7.3-1.3c-1.6-0.9-2.4-2.9-2.4-6v-1.3c0-1.6,0.2-3.2,0.6-4.7c0.4-1.3,1.1-2.5,2.2-3.4c1.2-1,2.6-1.7,4.2-2
		c2.2-0.5,4.4-0.7,6.6-0.7h8.8V349.4z"/>
	<path class="st1" d="M591.1,280.3c-3.8,0-7.5,0.7-11,1.9c-3.6,1.3-6.9,3.1-9.8,5.5v-3.1c0-0.8-0.3-1.6-0.9-2.2
		c-0.6-0.6-1.3-0.9-2.2-0.9h-18.4c-1.7,0-3,1.4-3.1,3.1v82.2c0,0.9,0.4,1.7,1,2.2c0.6,0.6,1.4,1,2.2,1h18.7c0.8,0,1.6-0.4,2.2-1
		c0.6-0.6,1-1.4,1.2-2.2v-60.3c2.8-1.6,5.9-2.9,9-3.9c3.5-1.1,7-1.6,10.7-1.5h1.2c0.7,0,1.3-0.3,1.7-0.9c0.4-0.6,0.6-1.3,0.6-2
		v-14.8c0-0.8-0.3-1.6-0.9-2.2C592.8,280.6,592,280.3,591.1,280.3z"/>
	<path class="st1" d="M801.4,281.5h-18.9c-1.7,0-3,1.4-3.1,3.1V367c0,1.7,1.4,3,3.1,3.1h18.9c1.7,0,3-1.4,3.1-3.1v-82.4
		C804.5,282.9,803.1,281.6,801.4,281.5z"/>
	<path class="st1" d="M1029.7,254.1c-0.5-0.3-1.1-0.4-1.7-0.4h-21c-1.4,0-2.3,1-2.5,2.9l-8.7,84.3c-0.1,1.3-0.4,2-0.9,2
		c-0.4,0-0.8-0.7-1.1-2l-11.1-37.6c-0.8-3-2.1-5-3.9-6c-1.7-1-3.7-1.5-5.7-1.5h-15.3c-2,0-4,0.5-5.7,1.5c-1.8,1-3,3-3.9,6L937.2,341
		c-0.3,1.3-0.7,2-1.1,2c-0.5,0-0.8-0.7-0.9-2l-8.9-84.1c-0.2-2-1-2.9-2.5-2.9h-21c-0.6,0-1.2,0.1-1.7,0.4c-0.6,0.3-0.9,1-0.8,1.6
		v0.3l14.4,102.5c0.6,4.5,2.1,7.6,4.5,9.3c2.4,1.7,5.6,2.5,9.7,2.5h8.8c3.1,0.1,6.2-0.7,8.9-2.3c2.5-1.5,4.3-4.3,5.3-8.2l12.2-41.4
		c0.1-0.4,0.3-0.7,0.5-1.1c0.2-0.1,0.5-0.2,0.8-0.1c0.3,0,0.6,0,0.8,0.1c0.3,0.3,0.5,0.7,0.5,1.1L979,360c1,3.9,2.8,6.6,5.3,8.2
		c2.7,1.6,5.8,2.4,8.9,2.3h8.8c4.1,0,7.4-0.8,9.7-2.5s3.9-4.7,4.5-9.3l14.2-102.8v-0.3C1030.5,255.1,1030.2,254.5,1029.7,254.1z"/>
	<path class="st1" d="M1269.9,352.6h-7.6c-2.4,0-3.8-0.4-4.3-1.3s-0.8-2.9-0.8-6v-45h12.7c0.8,0,1.6-0.3,2.2-0.9
		c0.6-0.6,0.9-1.4,0.9-2.2v-12.6c0-0.8-0.3-1.6-0.9-2.2c-0.6-0.6-1.3-0.9-2.2-0.9h-12.7v-16.4c0-0.7-0.2-1.4-0.8-1.9
		c-0.6-0.5-1.3-0.7-2-0.7h-0.4l-18.7,3.2c-0.8,0.2-1.5,0.6-2.2,1.1c-0.6,0.5-0.9,1.2-0.9,2v12.7h-12.4c-1.7,0.1-3.1,1.5-3.2,3.2V295
		c0,0.8,0.4,1.6,1,2.1c0.6,0.6,1.4,1,2.2,1.2l12.4,2V345c-0.1,4.5,0.4,9,1.7,13.4c0.9,3.1,2.6,5.9,4.9,8.1c2.3,2,5.1,3.4,8.1,3.9
		c3.7,0.7,7.4,1,11.1,1c2,0,4-0.1,6-0.3c1.8-0.2,3.8-0.5,6.2-0.9c2-0.3,2.9-1.3,2.9-3.1v-12C1273.1,353.5,1272,352.6,1269.9,352.6z"
		/>
	<path class="st1" d="M1356.2,290.6c-2.1-3.2-4.9-5.8-8.3-7.5c-3.6-1.9-8.1-2.8-13.7-2.8c-4.2-0.1-8.3,0.5-12.4,1.5
		c-4,1.2-7.8,3.1-11.3,5.5v-32.7c0-1.7-1.4-3.1-3.1-3.1h-18.8c-1.7,0-3.1,1.4-3.1,3.1v112.2c0.1,1.7,1.5,3.1,3.2,3.2h18.7
		c0.8,0,1.6-0.4,2.2-1c0.6-0.6,0.9-1.4,0.9-2.2v-60.7c2.5-1.3,5-2.5,7.6-3.5c2.2-0.9,4.6-1.4,6.9-1.4c2-0.1,3.9,0.2,5.8,0.7
		c1.4,0.4,2.6,1.2,3.5,2.4c0.9,1.3,1.5,2.9,1.7,4.5c0.3,2.2,0.5,4.5,0.5,6.8v51.3c0,0.8,0.3,1.6,0.9,2.2c0.5,0.6,1.3,1,2.2,1h18.7
		c1.7-0.1,3.1-1.5,3.2-3.2v-51.4c0-4.6-0.4-9.2-1.2-13.7C1359.7,297.7,1358.3,294,1356.2,290.6z"/>
	<path class="st1" d="M1509.7,280.3c-3.8,0-7.5,0.7-11.1,1.9c-3.6,1.2-6.9,3.1-9.8,5.5v-3.1c0-0.8-0.3-1.6-0.9-2.2
		c-0.6-0.6-1.3-0.9-2.2-0.9h-18.4c-1.7,0-3,1.4-3.1,3.1v82.2c0.1,1.7,1.5,3.1,3.2,3.2h18.7c0.8,0,1.6-0.4,2.2-1
		c0.6-0.6,0.9-1.4,0.9-2.2v-60.3c3-1.6,6.1-2.9,9.3-3.9c3.5-1.1,7-1.6,10.7-1.5h1.2c0.7,0,1.3-0.3,1.7-0.9c0.4-0.6,0.6-1.3,0.6-2
		v-14.8C1512.7,281.7,1511.4,280.3,1509.7,280.3L1509.7,280.3z"/>
	<path class="st1" d="M607.8,177.6V100c0-2.1-1.6-3.7-3.7-3.8c0,0,0,0-0.1,0h-20.4c-2.1,0-3.7,1.7-3.7,3.7c0,0,0,0,0,0v53.1
		c0,2.1-1.7,3.7-3.7,3.7c0,0,0,0,0,0h-88.2c-4,0-8-0.1-11.9-0.6c-2.6-0.2-5.1-0.9-7.4-2.1c-1.7-0.9-3.1-2.3-3.9-4.1
		c-0.8-2.1-1.2-4.3-1.1-6.5v-23.3c0-2.1-1.7-3.7-3.7-3.7h-20.4c-2.1,0-3.7,1.7-3.7,3.7c0,0,0,0,0,0v27.3c-0.1,5.3,0.6,10.6,2.2,15.6
		c1.4,4.1,3.9,7.8,7.3,10.5c3.4,2.7,8,4.6,13.7,5.9c7,1.3,14,1.9,21.1,1.8h124C606.1,181.3,607.8,179.7,607.8,177.6
		C607.8,177.6,607.8,177.6,607.8,177.6z"/>
	<path class="st1" d="M531.1,199.6c-1.3-1.3-2.7-2.3-4.4-3c-1.7-0.7-3.5-1.1-5.4-1.1c-1.9,0-3.7,0.3-5.4,1.1c-1.6,0.7-3.1,1.7-4.4,3
		c-1.2,1.3-2.2,2.8-2.9,4.4c-2.2,5.2-1,11.1,2.9,15.1c1.3,1.3,2.7,2.3,4.4,3c1.7,0.8,3.5,1.1,5.4,1.1c1.8,0,3.7-0.4,5.4-1.1
		c1.6-0.7,3.1-1.7,4.4-3c1.3-1.3,2.3-2.8,3-4.4c1.5-3.4,1.5-7.3,0-10.7C533.4,202.4,532.4,200.9,531.1,199.6z"/>
	<path class="st1" d="M802.9,181.3H864c1.9,0,3.5-1.5,3.5-3.5V40c0-1.9-1.6-3.5-3.5-3.5l0,0h-21c-1.9,0-3.5,1.5-3.5,3.5c0,0,0,0,0,0
		v113.3c0,1.9-1.6,3.5-3.5,3.5h-56.3c-1.5,0-2.8-1.2-2.8-2.8c0-0.6,0.2-1.3,0.6-1.7l3.1-3.9c2.4-3,4.4-6.1,6.2-9.5
		c1.6-3,2.8-6.2,3.8-9.5c0.8-2.7,1.3-5.5,1.3-8.2c0-3.8-0.8-7.5-2.4-10.9c-1.7-3.7-4.1-6.9-7.1-9.5c-3.6-3-7.7-5.3-12.1-6.7
		c-5.5-1.8-11.3-2.6-17.2-2.5c-7.2-0.1-14.4,1.3-21.1,4c-6.3,2.5-11.9,6.3-16.5,11.3c-1.1,1.2-2.1,2.4-2.9,3.8c-1,1.7-2,3.5-2.8,5.3
		c-0.9,1.9-1.7,3.9-2.4,6c-0.5,1.6-1,3.1-1.4,4.6c-0.2,0.8,0,1.7,0.5,2.4l17.6,22.8c0.9,1.2,0.7,3-0.5,3.9c-0.4,0.3-0.9,0.5-1.4,0.6
		c-1.5,0.2-3.1,0.3-4.7,0.4c-3.3,0.2-6.4,0.3-9.5,0.3h-33.1c-1.9,0-3.9-0.3-5.7-0.8c-1.8-0.5-3.5-1.3-5-2.5
		c-1.5-1.2-2.8-2.8-3.6-4.6c-1-2.2-1.4-4.6-1.4-7V99c0-1.5-1.2-2.7-2.6-2.7h-22.7c-1.5,0-2.6,1.2-2.6,2.7v74.6
		c0.1,4.1-0.1,8.3-0.9,12.4c-0.4,2.6-1.6,5-3.3,7c-1.6,1.9-3.7,3.3-6.1,3.9c-2.9,0.7-6,1.1-9,1h-3.2c-1.5,0-2.7,1.2-2.7,2.6v20.6
		c0,1.5,1.2,2.6,2.7,2.6h3.9c7.1,0.1,14.1-0.8,20.9-2.7c5.5-1.6,10.6-4.6,14.6-8.8c4.1-4.5,7-10,8.5-15.9c1.5-5.2,2.2-10.5,2.3-15.9
		c0.1-1.5,1.3-2.7,2.8-2.6c0.5,0,0.9,0.2,1.3,0.4c1.4,0.8,2.8,1.5,4.3,2c1.3,0.4,2.7,0.7,4.1,0.9c1.1,0.1,2.2,0.2,3.2,0.2h34
		c6.4,0,12.8-0.7,19-2.2c5.9-1.4,11.6-3.1,17.3-5.2c0.9-0.3,1.8-0.2,2.6,0.3c1.6,1.1,3.2,2,4.9,2.8c2.1,1,4.4,1.8,6.6,2.4
		c2.2,0.6,4.4,1.1,6.6,1.4c2,0.3,4,0.4,6,0.4L802.9,181.3z M763.6,130.5c-0.7,2.1-1.5,4.1-2.6,6.1c-1.1,2.1-2.5,4.1-4,5.9
		c-0.9,1.1-2,2.2-3.1,3.1c-1.1,0.9-2.8,0.8-3.8-0.2c-1-1.1-2.1-2.3-3.3-3.7c-1.8-2.2-3.6-4.5-5.4-6.9s-3.6-4.8-5.3-7.2
		c-0.9-1.3-1.8-2.6-2.7-3.7c-0.9-1.2-0.7-2.9,0.5-3.9c0.1-0.1,0.2-0.2,0.4-0.2c1.7-0.9,3.5-1.7,5.3-2.3c4-1.4,8.3-2.1,12.6-1.9
		c2.2-0.1,4.3,0.3,6.3,1c1.4,0.5,2.6,1.3,3.7,2.4c0.9,0.9,1.4,2,1.7,3.2c0.3,1.1,0.4,2.2,0.4,3.3
		C764.5,127.1,764.1,128.9,763.6,130.5z"/>
	<path class="st1" d="M1512.7,178.4l-0.1-35.2c0.1-7.2-1-14.5-3.1-21.4c-1.9-6-5-11.5-9.1-16.2c-4-4.5-9.1-8.1-14.7-10.4
		c-6.3-2.5-13-3.8-19.8-3.7c-4.3,0-8.6,0.6-12.7,1.7c-4.2,1.2-8.3,2.9-12.1,5.1c-4,2.3-7.6,5.1-10.9,8.2l-4.3,4.1
		c-1.2,1.1-3.1,1-4.2-0.2c-0.5-0.5-0.7-1.2-0.8-1.9v-69c0-1.6-1.3-2.9-2.9-2.9h-22.1c-1.6,0-2.9,1.3-2.9,2.9c0,0,0,0,0,0v114.4
		c0,1.6-1.3,2.9-2.9,2.9h-44.8v-19.1c0-3.5-0.3-7-0.8-10.5c-0.5-3.6-1.4-7.2-2.7-10.6c-1.3-3.4-2.9-6.7-5-9.7
		c-2.1-3.1-4.7-5.8-7.6-7.9c-3.3-2.4-6.9-4.2-10.8-5.4c-4.6-1.4-9.5-2.1-14.3-2c-12.2-0.3-23.8,4.9-31.8,14
		c-3.7,4.2-6.5,9.1-8.4,14.3c-1.9,5.3-2.9,10.8-2.9,16.4c0,1.5,0,3.2,0.2,5.1c0.1,1.9,0.3,3.8,0.6,5.7s0.6,3.7,1,5.4
		c0.3,1.5,0.8,3,1.5,4.4h-33.4c-2.9,0.1-5.8-0.2-8.6-0.8c-2-0.4-3.9-1.3-5.4-2.6c-1.3-1.2-2.3-2.8-2.8-4.6c-0.6-2.2-0.9-4.6-0.8-6.9
		V99.8c0-1.9-1.6-3.5-3.5-3.5l0,0h-20.9c-1.9,0-3.5,1.6-3.5,3.5c0,0,0,0,0,0v46.1c0.1,1.9-0.2,3.8-0.9,5.6c-0.5,1.3-1.4,2.5-2.5,3.3
		c-1.1,0.8-2.4,1.4-3.8,1.6c-1.6,0.3-3.2,0.4-4.9,0.4c-2.5,0.1-4.9-0.2-7.3-0.9c-1.7-0.5-3.2-1.4-4.4-2.7c-1.1-1.3-1.9-2.9-2.2-4.6
		c-0.4-2.2-0.6-4.4-0.6-6.6v-32.1c0-2.3-1.9-4.2-4.2-4.2h-20.2c-1.9,0-3.5,1.6-3.5,3.5v37.4c0.1,1.8-0.3,3.6-1,5.2
		c-0.6,1.3-1.6,2.4-2.8,3.1c-1.3,0.8-2.8,1.4-4.3,1.6c-1.8,0.3-3.7,0.4-5.6,0.4c-5.5,0-9.4-1.3-11.8-3.9s-3.6-6.3-3.6-10.9v-22.2
		c0-1.9-1.6-3.5-3.5-3.5l0,0h-20.9c-1.9,0-3.5,1.6-3.5,3.5c0,0,0,0,0,0v51.4c0,10.7-2.5,18.4-7.4,23.3c-4.9,4.9-12.7,7.3-23.3,7.3
		c-10.4,0-18.1-2.7-23.1-8c-5-5.3-7.5-13.3-7.5-23.9v-34.4c0-1.9-1.6-3.5-3.5-3.5H988c-1.9,0-3.5,1.6-3.5,3.5v34.2
		c0,9.8,1.3,18.2,4,25.4c2.4,6.7,6.4,12.7,11.5,17.7c5.2,4.8,11.5,8.3,18.3,10.3c7.8,2.3,16,3.4,24.1,3.3c9.8,0,18.4-1.3,25.8-3.9
		c6.8-2.3,13-6,18.3-10.9c4.8-4.6,8.6-10.3,10.9-16.6c2.5-6.7,3.8-13.8,3.8-20.9c1,0.9,2.2,1.8,3.3,2.5c1.6,1,3.3,1.8,5.1,2.4
		c2.3,0.8,4.7,1.4,7.2,1.8c3.2,0.5,6.5,0.7,9.7,0.7c2.5,0,5-0.1,7.5-0.4c2.5-0.3,4.9-0.8,7.2-1.6c2.4-0.8,4.6-2,6.7-3.4
		c1.1-0.8,2.2-1.7,3.2-2.7c1.3-1.4,3.5-1.5,5-0.2l2.2,1.9c1.7,1.5,3.7,2.7,5.7,3.6c2.4,1,5,1.8,7.6,2.2c5.4,0.8,11,1,16.4,0.4
		c4.8-0.5,9.5-2.3,13.5-5c1.2-0.9,2.4-1.8,3.4-2.9c1.4-1.3,3.6-1.3,4.9,0.1c0.1,0.1,0.1,0.1,0.2,0.2c0.7,0.8,1.4,1.5,2.2,2.2
		c1.7,1.4,3.6,2.6,5.7,3.5c2,0.8,4.1,1.4,6.3,1.8c1.8,0.3,3.7,0.4,5.6,0.5c0.2,0,0.5,0,0.7,0h279.2
		C1511.4,181.3,1512.7,180,1512.7,178.4z M1317.4,156.8h-12.2c-2.3,0-4.7-0.4-6.8-1.3c-2.1-0.9-4-2.3-5.5-4.1
		c-1.7-2-2.9-4.3-3.7-6.8c-1-3.1-1.4-6.3-1.4-9.6c0-2.3,0.3-4.6,0.8-6.8c0.5-2.1,1.3-4.1,2.5-5.9c1.2-1.7,2.8-3.2,4.7-4.2
		c2.3-1.1,4.8-1.7,7.3-1.6c2.6-0.1,5.2,0.5,7.4,1.9c1.9,1.2,3.4,2.9,4.4,4.9c1.1,2.2,1.8,4.6,2.1,7c0.3,2.7,0.5,5.3,0.5,8V156.8z
		 M1484.7,153.9c0,1.6-1.3,2.9-2.9,2.9l0,0h-57c-1.6,0-2.9-1.3-2.9-3c0-0.4,0.1-0.9,0.3-1.3c1.9-3.9,4.1-7.7,6.5-11.4
		c2.9-4.6,6.3-8.9,10.2-12.8c3.4-3.5,7.4-6.4,11.7-8.7c4-2.1,8.5-3.2,13-3.2c3.7-0.2,7.3,0.8,10.5,2.7c2.7,1.8,4.9,4.2,6.5,7
		c1.6,3,2.7,6.3,3.3,9.7c0.6,3.5,0.9,7.1,0.9,10.7L1484.7,153.9z"/>
	<path class="st1" d="M894.6,36.5h20.4c2.1,0,3.8,1.7,3.8,3.8v137.3c0,2.1-1.7,3.8-3.8,3.8h-20.4c-2.1,0-3.8-1.7-3.8-3.8V40.3
		C890.9,38.2,892.6,36.5,894.6,36.5z"/>
	<path class="st1" d="M1276,75.4c1.3,1.3,2.8,2.3,4.4,3c1.7,0.8,3.6,1.1,5.4,1.1c1.8,0,3.6-0.4,5.3-1.1c1.6-0.7,3.1-1.7,4.3-3
		c1.3-1.3,2.3-2.8,3-4.4c1.5-3.4,1.5-7.3,0-10.7c-0.7-1.7-1.7-3.2-3-4.5c-2.5-2.6-6-4-9.7-4c-1.9,0-3.7,0.3-5.4,1.1
		c-1.6,0.7-3.1,1.7-4.4,3c-4,4-5.1,10-3,15.2C1273.7,72.7,1274.7,74.2,1276,75.4z"/>
	<path class="st1" d="M1310.3,75.4c1.3,1.3,2.7,2.3,4.4,3c1.7,0.8,3.5,1.1,5.4,1.1c1.8,0,3.7-0.4,5.4-1.1c1.6-0.7,3.1-1.7,4.4-3
		c1.3-1.3,2.3-2.8,3-4.4c1.5-3.4,1.5-7.3,0-10.7c-0.7-1.7-1.7-3.2-3-4.5c-1.2-1.3-2.7-2.3-4.4-3c-1.7-0.7-3.5-1.1-5.4-1.1
		c-1.9,0-3.7,0.3-5.4,1.1c-1.6,0.7-3.1,1.7-4.4,3c-1.2,1.3-2.2,2.8-2.9,4.5C1305.2,65.5,1306.4,71.4,1310.3,75.4z"/>
	<path class="st1" d="M801.6,254.7h-19.1c-0.8,0-1.5,0.3-2.1,0.9c-0.6,0.5-0.9,1.3-0.9,2.1v13.7c0,1.6,1.3,2.9,2.9,2.9h19.1
		c0.8,0,1.5-0.3,2.1-0.9c0.6-0.5,0.9-1.3,0.9-2v-13.7C804.5,256,803.2,254.7,801.6,254.7z"/>
	<g>
		<path class="st0" d="M185.6,340l-0.3,0.4L185.6,340z"/>
		<path class="st0" d="M202.2,103L202.2,103C202.2,103,202.3,103,202.2,103L202.2,103L202.2,103z"/>
		<path class="st0" d="M202.4,102.9L202.4,102.9L202.4,102.9L202.4,102.9z"/>
		<path class="st0" d="M202.3,100c0-0.2,0.1-0.3,0.1-0.3L202.3,100z"/>
		<path class="st0" d="M114.2,161.5l-0.3-0.4C114,161.2,114.1,161.3,114.2,161.5z"/>
		<path class="st0" d="M105.6,267.9h0.4H105.6z"/>
		<path class="st0" d="M113.7,160.8l-0.2-0.3L113.7,160.8z"/>
		<path class="st0" d="M113.5,160.5"/>
		<path class="st0" d="M105.6,267.9"/>
		<path class="st0" d="M184.8,341"/>
		<path class="st0" d="M305,131l-0.3,0.1C304.8,131.1,304.9,131,305,131z"/>
		<path class="st0" d="M291.2,324.6"/>
		<path class="st0" d="M305,131"/>
		<path class="st0" d="M291.1,323.8c0-0.1,0-0.3-0.1-0.4C291,323.5,291.1,323.7,291.1,323.8z"/>
		<path class="st0" d="M344.7,231.1l-0.3-0.2L344.7,231.1z"/>
		<path class="st0" d="M344.7,231.1"/>
		
			<linearGradient id="SVGID_1_" gradientUnits="userSpaceOnUse" x1="239.6958" y1="355.4766" x2="187.2659" y2="355.4766" gradientTransform="matrix(1 0 0 -1 0 426)">
			<stop  offset="0" style="stop-color:#BAE1ED"/>
			<stop  offset="0.37" style="stop-color:#7DC6E3"/>
			<stop  offset="0.71" style="stop-color:#00A8D9"/>
			<stop  offset="1" style="stop-color:#0175B7"/>
		</linearGradient>
		<path class="st2" d="M220.5,90.3c0.4-0.2,0.9-0.2,1.4,0l18.3,12.8c0.4-0.7,0.4-1.6,0.1-2.3l-18.4-61.9c-0.6-2.1-1.4,0-1.4,0
			l-18.5,62c-0.3,0.7-0.3,1.6,0.2,2.2L220.5,90.3z M202.4,99.7c0,0.1-0.1,0.2-0.1,0.3L202.4,99.7z"/>
		<path class="st3" d="M220.5,90.3l-18.3,12.8l0,0c0.4,0.5,1.1,0.7,1.7,0.7c0.8-0.1,1.6-0.4,2.3-0.8l0,0l14.3-10
			c0.4-0.2,0.9-0.2,1.4,0l14.3,10c0.6,0.4,1.4,0.7,2.1,0.8c0.7,0.1,1.3-0.2,1.8-0.7l-18.3-12.8C221.4,90,220.9,90,220.5,90.3z
			 M202.3,103L202.3,103L202.3,103L202.3,103C202.3,103,202.3,103,202.3,103z M202.4,102.9L202.4,102.9L202.4,102.9z"/>
		
			<linearGradient id="SVGID_2_" gradientUnits="userSpaceOnUse" x1="113.9663" y1="313.0145" x2="89.9364" y2="282.4245" gradientTransform="matrix(1 0 0 -1 0 426)">
			<stop  offset="0" style="stop-color:#BAE1ED"/>
			<stop  offset="0.37" style="stop-color:#7DC6E3"/>
			<stop  offset="0.71" style="stop-color:#00A8D9"/>
			<stop  offset="1" style="stop-color:#0175B7"/>
		</linearGradient>
		<path class="st4" d="M117.4,140.5c0.1-0.5,0.4-0.9,0.8-1.1l21.5-6.3c-0.2-1.1-1.8-1.5-1.8-1.5L78,107.4c-2-0.8-0.8,1.1-0.8,1.1
			l37,53.1c-0.1-0.2-0.2-0.3-0.3-0.4l0.3,0.4c0.7,1,1.3,1.3,1.8,1.3L117.4,140.5z M113.5,160.5L113.5,160.5l0.2,0.3L113.5,160.5z"/>
		<path class="st5" d="M117.4,140.5l-1.4,22.3l0,0c0.6-0.1,1.2-0.4,1.6-0.9c0.5-0.7,0.7-1.5,0.8-2.3l0,0l1.1-17.4
			c0.1-0.5,0.4-0.9,0.8-1.1l16.8-5c0.7-0.2,1.4-0.6,1.9-1.2c0.5-0.5,0.7-1.2,0.6-1.9l-21.5,6.3C117.7,139.5,117.4,140,117.4,140.5z"
			/>
		
			<linearGradient id="SVGID_3_" gradientUnits="userSpaceOnUse" x1="66.7087" y1="215.4831" x2="76.1687" y2="153.9531" gradientTransform="matrix(1 0 0 -1 0 426)">
			<stop  offset="0" style="stop-color:#BAE1ED"/>
			<stop  offset="0.37" style="stop-color:#7DC6E3"/>
			<stop  offset="0.71" style="stop-color:#00A8D9"/>
			<stop  offset="1" style="stop-color:#0175B7"/>
		</linearGradient>
		<path class="st6" d="M92.1,251l8.4-20.7c-0.8-0.2-1.6-0.1-2.3,0.4L42,262.5c-1.9,1.1,0.3,1.3,0.3,1.3l64.5,4.1
			c0.8,0.2,1.6-0.1,2.2-0.6l-16.6-15C92.1,252,92,251.5,92.1,251z M105.6,267.9h0.4H105.6z"/>
		<path class="st7" d="M108,263.5L108,263.5l-13-11.7c-0.3-0.4-0.4-0.9-0.3-1.3l6.6-16.3c0.3-0.7,0.4-1.5,0.3-2.2
			c-0.1-0.7-0.5-1.3-1.1-1.6L92.1,251c-0.2,0.5,0,1,0.3,1.3l16.6,15l0,0c0.3-0.5,0.5-1.2,0.3-1.8C109.1,264.7,108.6,264,108,263.5z"
			/>
		
			<linearGradient id="SVGID_4_" gradientUnits="userSpaceOnUse" x1="141.1883" y1="73.4482" x2="192.5284" y2="50.5082" gradientTransform="matrix(1 0 0 -1 0 426)">
			<stop  offset="0" style="stop-color:#FFC80A"/>
			<stop  offset="0.33" style="stop-color:#F89E1B"/>
			<stop  offset="0.52" style="stop-color:#DF701E"/>
			<stop  offset="0.73" style="stop-color:#C74421"/>
			<stop  offset="0.9" style="stop-color:#B82923"/>
			<stop  offset="1" style="stop-color:#B21F24"/>
		</linearGradient>
		<path class="st8" d="M164.4,341.6c-0.5,0-1-0.2-1.2-0.6l-11-19.5c-1,0.5-1.1,2-1.1,2l-10.2,63.8c-0.3,2.2,1.2,0.6,1.2,0.6
			l43.5-47.9l-0.3,0.4l0.3-0.4c0.6-0.5,0.9-1.3,0.8-2.1L164.4,341.6z"/>
		<path class="st9" d="M164.4,341.6l22.1-3.7l0,0c-0.2-0.6-0.7-1.1-1.2-1.4c-0.8-0.3-1.6-0.4-2.4-0.2l0,0l-17.2,2.9
			c-0.5,0-1-0.2-1.2-0.6l-8.6-15.3c-0.4-0.7-0.9-1.2-1.6-1.6c-0.6-0.3-1.3-0.4-1.9-0.1l11,19.5C163.5,341.4,163.9,341.6,164.4,341.6
			z"/>
		
			<linearGradient id="SVGID_5_" gradientUnits="userSpaceOnUse" x1="269.6472" y1="58.8099" x2="302.9572" y2="74.65" gradientTransform="matrix(1 0 0 -1 0 426)">
			<stop  offset="0" style="stop-color:#FFC80A"/>
			<stop  offset="0.3" style="stop-color:#F89E1B"/>
			<stop  offset="0.4" style="stop-color:#F3941C"/>
			<stop  offset="0.57" style="stop-color:#E47A1E"/>
			<stop  offset="0.79" style="stop-color:#CC4F21"/>
			<stop  offset="1" style="stop-color:#B21F24"/>
		</linearGradient>
		<path class="st10" d="M291,323.4c0-0.8-0.4-1.5-1.1-2L279,340.9c-0.3,0.4-0.7,0.6-1.2,0.6l-22.1-3.6c-0.3,1.1,0.9,2.1,0.9,2.1
			l43.6,47.7c1.5,1.6,1.2-0.6,1.2-0.6L291,323.4z M291,323.4c0,0.2,0,0.3,0.1,0.4C291.1,323.7,291,323.5,291,323.4L291,323.4z"/>
		<path class="st11" d="M279,340.9l10.9-19.5l0,0l0,0l0,0c-0.6-0.2-1.3-0.2-1.8,0.1c-0.7,0.4-1.3,1-1.7,1.8l0,0l-8.5,15.3
			c-0.3,0.4-0.7,0.6-1.2,0.6l-17.3-2.8c-0.8-0.1-1.5,0-2.3,0.2c-0.6,0.3-1.1,0.8-1.3,1.4l22.1,3.6
			C278.3,341.6,278.8,341.4,279,340.9z"/>
		
			<linearGradient id="SVGID_6_" gradientUnits="userSpaceOnUse" x1="356.3947" y1="128.063" x2="373.3246" y2="187.043" gradientTransform="matrix(1 0 0 -1 0 426)">
			<stop  offset="0" style="stop-color:#FFC80A"/>
			<stop  offset="0.35" style="stop-color:#F89E1B"/>
			<stop  offset="0.49" style="stop-color:#EC881D"/>
			<stop  offset="0.77" style="stop-color:#CD5021"/>
			<stop  offset="1" style="stop-color:#B21F24"/>
		</linearGradient>
		<path class="st12" d="M400.1,262.1l-56.4-31.6c-0.6-0.5-1.5-0.6-2.2-0.4l8.5,20.7c0.1,0.5,0,1-0.3,1.3l-16.6,15
			c0.6,0.6,1.4,0.8,2.2,0.6l64.4-4.4C402,263.3,400.1,262.1,400.1,262.1z M344.7,231.1l-0.3-0.2L344.7,231.1z"/>
		<path class="st13" d="M349.9,250.8l-8.5-20.7l0,0c-0.5,0.3-0.9,0.9-1.1,1.5c-0.1,0.8,0,1.7,0.3,2.4l0,0l6.6,16.2
			c0.2,0.5,0,1-0.3,1.3l-13,11.8c-0.6,0.5-1,1.2-1.2,1.9c-0.2,0.7-0.1,1.4,0.3,1.9l16.6-15C350,251.8,350.1,251.3,349.9,250.8z"/>
		
			<linearGradient id="SVGID_7_" gradientUnits="userSpaceOnUse" x1="369.3329" y1="261.0503" x2="332.2029" y2="307.6503" gradientTransform="matrix(1 0 0 -1 0 426)">
			<stop  offset="0.25" style="stop-color:#FFC80A"/>
			<stop  offset="0.29" style="stop-color:#F89E1B"/>
			<stop  offset="0.5" style="stop-color:#DF701E"/>
			<stop  offset="0.72" style="stop-color:#C74421"/>
			<stop  offset="0.9" style="stop-color:#B82923"/>
			<stop  offset="1" style="stop-color:#B21F24"/>
		</linearGradient>
		<path class="st14" d="M363.7,107.1l-59.9,24.4c-1.1,0.4-1.5,1-1.7,1.5l21.5,6.2c0.5,0.2,0.8,0.6,0.8,1.1l1.4,22.3
			c1.2,0,1.9-1.4,1.9-1.4l36.8-53.1C365.8,106.3,363.7,107.1,363.7,107.1z M305,131c-0.1,0-0.2,0.1-0.3,0.1L305,131z"/>
		<path class="st15" d="M323.7,139.2l-21.5-6.2l0,0c-0.1,0.6,0.1,1.3,0.5,1.8c0.6,0.6,1.3,1,2.1,1.3l0,0l16.8,4.9
			c0.5,0.2,0.8,0.6,0.9,1.1l1.1,17.5c0.1,0.8,0.3,1.5,0.7,2.1c0.4,0.6,1,0.9,1.7,1l-1.4-22.4C324.4,139.8,324.1,139.4,323.7,139.2z"
			/>
		
			<linearGradient id="SVGID_8_" gradientUnits="userSpaceOnUse" x1="160.3804" y1="118.9663" x2="297.3386" y2="274.8743" gradientTransform="matrix(1 0 0 -1 0 426)">
			<stop  offset="0" style="stop-color:#FFC80A"/>
			<stop  offset="0.3" style="stop-color:#F89E1B"/>
			<stop  offset="0.5" style="stop-color:#DF701E"/>
			<stop  offset="0.72" style="stop-color:#C74421"/>
			<stop  offset="0.9" style="stop-color:#B82923"/>
			<stop  offset="1" style="stop-color:#B21F24"/>
		</linearGradient>
		<path class="st16" d="M309.7,164.4L309.7,164.4c0,0-21.7-14.3-42.8-9.1c21.2,12.9,34.2,36,34.2,60.8l0,0
			c0,50.9-41.5,92.1-92.8,92.1c-15,0-29.8-3.6-43.1-10.5c-8.5-4.7-16.3-10.5-23.3-17.2c-16.9-17.1-26.4-40.2-26.4-64.2
			c0,0,0.2-1.4,0.3-2.6l-0.3,2.6c-0.5,8.2-0.1,16.4,1.3,24.4l0,0c0.7,4.3,1.8,8.6,3.2,12.8l0.6,2c0.2,0.5,0.3,1,0.5,1.4l0.1,0.4
			c5.4,15.4,14.3,29.2,26,40.5c0.9,0.9,1.9,1.8,2.9,2.7c3.5,3.2,7.2,6.2,11.2,8.9c1.1,0.7,2.1,1.4,3.1,2.1c5.7,3.7,11.7,6.9,18,9.4
			c1,0.4,1.5,0.6,1.5,0.6c3.6,1.2,7,2.2,10.4,3.1c3,0.8,6.1,1.4,9.2,2c2.9,0.5,5.9,0.9,8.9,1.1c2.8,0.2,5.7,0.3,8.5,0.3
			c3.6,0,7.2-0.2,10.8-0.5c5.4-0.5,10.7-1.5,15.9-2.9c9-2.3,17.7-5.8,25.9-10.4l0.2-0.1c1.4-0.9,2.7-1.6,3.8-2.3s2.2-1.5,2.8-2
			c-0.5,0.4-1.1,0.8-1.6,1.1l1-0.8C327.7,277.6,341,213,309.7,164.4L309.7,164.4z"/>
		
			<linearGradient id="SVGID_9_" gradientUnits="userSpaceOnUse" x1="168.2172" y1="112.0815" x2="305.1872" y2="267.9815" gradientTransform="matrix(1 0 0 -1 0 426)">
			<stop  offset="0" style="stop-color:#FFC80A"/>
			<stop  offset="0.3" style="stop-color:#F89E1B"/>
			<stop  offset="0.5" style="stop-color:#DF701E"/>
			<stop  offset="0.72" style="stop-color:#C74421"/>
			<stop  offset="0.9" style="stop-color:#B82923"/>
			<stop  offset="1" style="stop-color:#B21F24"/>
		</linearGradient>
		<path class="st17" d="M203,297.7c-12,0-23.8-2.5-34.8-7.3C179.2,295.3,191.1,297.7,203,297.7z"/>
		
			<linearGradient id="SVGID_10_" gradientUnits="userSpaceOnUse" x1="109.659" y1="163.53" x2="246.6289" y2="319.43" gradientTransform="matrix(1 0 0 -1 0 426)">
			<stop  offset="0" style="stop-color:#FFC80A"/>
			<stop  offset="0.3" style="stop-color:#F89E1B"/>
			<stop  offset="0.5" style="stop-color:#DF701E"/>
			<stop  offset="0.72" style="stop-color:#C74421"/>
			<stop  offset="0.9" style="stop-color:#B82923"/>
			<stop  offset="1" style="stop-color:#B21F24"/>
		</linearGradient>
		<path class="st18" d="M116.1,210.7c0,22.7,8.9,44.5,24.7,60.8C124.9,255.2,116.1,233.4,116.1,210.7z"/>
		
			<linearGradient id="SVGID_11_" gradientUnits="userSpaceOnUse" x1="143.4047" y1="133.8762" x2="280.3646" y2="289.7862" gradientTransform="matrix(1 0 0 -1 0 426)">
			<stop  offset="0" style="stop-color:#FFC80A"/>
			<stop  offset="0.3" style="stop-color:#F89E1B"/>
			<stop  offset="0.5" style="stop-color:#DF701E"/>
			<stop  offset="0.72" style="stop-color:#C74421"/>
			<stop  offset="0.9" style="stop-color:#B82923"/>
			<stop  offset="1" style="stop-color:#B21F24"/>
		</linearGradient>
		<path class="st19" d="M263,156.5L263,156.5c-0.4-0.3-0.7-0.5-1.1-0.8c0.5,0.4,1.1,0.8,1.6,1.2L263,156.5L263,156.5z"/>
		
			<linearGradient id="SVGID_12_" gradientUnits="userSpaceOnUse" x1="141.9077" y1="135.2011" x2="278.8677" y2="291.1011" gradientTransform="matrix(1 0 0 -1 0 426)">
			<stop  offset="0" style="stop-color:#FFC80A"/>
			<stop  offset="0.3" style="stop-color:#F89E1B"/>
			<stop  offset="0.5" style="stop-color:#DF701E"/>
			<stop  offset="0.72" style="stop-color:#C74421"/>
			<stop  offset="0.9" style="stop-color:#B82923"/>
			<stop  offset="1" style="stop-color:#B21F24"/>
		</linearGradient>
		<path class="st20" d="M140.8,271.5c6.5,6.4,13.9,11.9,21.8,16.3C154.7,283.3,147.3,277.8,140.8,271.5z"/>
		
			<radialGradient id="SVGID_13_" cx="305.7759" cy="266.3527" r="178.46" gradientTransform="matrix(1 0 0 -1 0 426)" gradientUnits="userSpaceOnUse">
			<stop  offset="0" style="stop-color:#BAE1ED"/>
			<stop  offset="0.37" style="stop-color:#7DC6E3"/>
			<stop  offset="0.71" style="stop-color:#00A8D9"/>
			<stop  offset="1" style="stop-color:#0175B7"/>
		</radialGradient>
		<path class="st21" d="M159.8,188.9c-0.3,1-0.4,2-0.6,2.9C159.3,190.8,159.5,189.8,159.8,188.9z"/>
		
			<radialGradient id="SVGID_14_" cx="305.7759" cy="266.3527" r="178.46" gradientTransform="matrix(1 0 0 -1 0 426)" gradientUnits="userSpaceOnUse">
			<stop  offset="0" style="stop-color:#BAE1ED"/>
			<stop  offset="0.37" style="stop-color:#7DC6E3"/>
			<stop  offset="0.71" style="stop-color:#00A8D9"/>
			<stop  offset="1" style="stop-color:#0175B7"/>
		</radialGradient>
		<path class="st22" d="M159.2,191.8c-0.6,2.8-0.9,5.7-0.8,8.6C158.3,197.5,158.6,194.6,159.2,191.8z"/>
		
			<radialGradient id="SVGID_15_" cx="158.3403" cy="224.8027" r="0.5445" gradientTransform="matrix(1 0 0 -1 0 426)" gradientUnits="userSpaceOnUse">
			<stop  offset="0" style="stop-color:#BAE1ED"/>
			<stop  offset="0.37" style="stop-color:#7DC6E3"/>
			<stop  offset="0.71" style="stop-color:#00A8D9"/>
			<stop  offset="1" style="stop-color:#0175B7"/>
		</radialGradient>
		<path class="st23" d="M158.3,200.4c0,0.3,0,0.8,0,1.5C158.4,201.2,158.3,200.7,158.3,200.4z"/>
		
			<radialGradient id="SVGID_16_" cx="305.7759" cy="266.3527" r="178.46" gradientTransform="matrix(1 0 0 -1 0 426)" gradientUnits="userSpaceOnUse">
			<stop  offset="0" style="stop-color:#BAE1ED"/>
			<stop  offset="0.37" style="stop-color:#7DC6E3"/>
			<stop  offset="0.71" style="stop-color:#00A8D9"/>
			<stop  offset="1" style="stop-color:#0175B7"/>
		</radialGradient>
		<path class="st24" d="M168.8,170.7c-3.9,5.5-7,11.7-9,18.1C161.8,182.4,164.9,176.2,168.8,170.7z"/>
		
			<radialGradient id="SVGID_17_" cx="305.7759" cy="266.3527" r="178.46" gradientTransform="matrix(1 0 0 -1 0 426)" gradientUnits="userSpaceOnUse">
			<stop  offset="0" style="stop-color:#BAE1ED"/>
			<stop  offset="0.37" style="stop-color:#7DC6E3"/>
			<stop  offset="0.71" style="stop-color:#00A8D9"/>
			<stop  offset="1" style="stop-color:#0175B7"/>
		</radialGradient>
		<path class="st25" d="M158.4,202c0,0.4,0,0.8,0.1,1.3C158.4,202.8,158.4,202.3,158.4,202z"/>
		
			<radialGradient id="SVGID_18_" cx="305.7759" cy="266.3527" r="178.46" gradientTransform="matrix(1 0 0 -1 0 426)" gradientUnits="userSpaceOnUse">
			<stop  offset="0" style="stop-color:#BAE1ED"/>
			<stop  offset="0.37" style="stop-color:#7DC6E3"/>
			<stop  offset="0.71" style="stop-color:#00A8D9"/>
			<stop  offset="1" style="stop-color:#0175B7"/>
		</radialGradient>
		<path class="st26" d="M237.2,224.2c0.3-0.7,0.6-1.3,0.8-2C237.8,222.9,237.5,223.5,237.2,224.2z"/>
		
			<radialGradient id="SVGID_19_" cx="305.7759" cy="266.3527" r="178.46" gradientTransform="matrix(1 0 0 -1 0 426)" gradientUnits="userSpaceOnUse">
			<stop  offset="0" style="stop-color:#BAE1ED"/>
			<stop  offset="0.37" style="stop-color:#7DC6E3"/>
			<stop  offset="0.71" style="stop-color:#00A8D9"/>
			<stop  offset="1" style="stop-color:#0175B7"/>
		</radialGradient>
		<path class="st27" d="M160.7,215.8c-1.5-4-2.1-9.3-2.2-12.6C158.6,206.5,159.2,211.9,160.7,215.8L160.7,215.8z"/>
		
			<radialGradient id="SVGID_20_" cx="305.7759" cy="266.3527" r="178.46" gradientTransform="matrix(1 0 0 -1 0 426)" gradientUnits="userSpaceOnUse">
			<stop  offset="0" style="stop-color:#BAE1ED"/>
			<stop  offset="0.37" style="stop-color:#7DC6E3"/>
			<stop  offset="0.71" style="stop-color:#00A8D9"/>
			<stop  offset="1" style="stop-color:#0175B7"/>
		</radialGradient>
		<path class="st28" d="M176.7,161.8c0.6-0.6,1.2-1.1,1.9-1.7c0,0,0.7-0.7,2.1-1.8c-1.3,1.1-2.1,1.8-2.1,1.8
			C177.9,160.6,177.3,161.2,176.7,161.8z"/>
		
			<radialGradient id="SVGID_21_" cx="305.7759" cy="266.3527" r="178.46" gradientTransform="matrix(1 0 0 -1 0 426)" gradientUnits="userSpaceOnUse">
			<stop  offset="0" style="stop-color:#BAE1ED"/>
			<stop  offset="0.37" style="stop-color:#7DC6E3"/>
			<stop  offset="0.71" style="stop-color:#00A8D9"/>
			<stop  offset="1" style="stop-color:#0175B7"/>
		</radialGradient>
		<path class="st29" d="M243.7,216.5c-0.2,3.3-0.9,6.5-1.9,9.6c-0.3,0.7-0.6,1.5-0.9,2.2c-1.5,3.5-3.5,6.7-6,9.6
			c-0.1,0.1-0.2,0.2-0.2,0.3l-0.2,0.2c-8.3,9.4-21.5,15-35.4,15c-0.8,0-1.7,0-2.5-0.1c-20.4-1.1-38-14.9-43.7-34.6l0,0
			c-1.7-4.6-2.3-10.7-2.6-14.4c0-0.6,0-1.1-0.1-1.5c0-0.9,0-1.5,0-1.8c0-3.3,0.3-6.7,1-9.9c0.2-1.1,0.4-2.2,0.7-3.4
			c2.4-7.5,5.9-14.5,10.4-20.9c0.1-0.2,0.3-0.4,0.4-0.6l0,0c2.6-3.5,5.5-6.7,8.6-9.7c0.7-0.6,1.4-1.3,2.2-1.9c0,0,0.8-0.8,2.4-2.1
			c12.9-10.6,29-16.6,45.7-17.2c4.4-0.2,8.8-0.1,13.2,0.5c7.4,1.1,14.7,2.8,21.7,5.3c15.7-0.5,37.1,3.4,53.2,23.3l0,0l-0.2-0.2l0,0
			l-0.6-1c-0.4-0.6-0.9-1.3-1.6-2.2c-0.3-0.5-0.6-0.9-1-1.4c-8.2-11.1-18.6-20.4-30.5-27.5c-1-0.6-2-1.2-3.1-1.8
			c-1.2-0.7-2.4-1.4-3.6-2c-0.1-0.1-0.2-0.1-0.4-0.2l-1.3-0.7c-3.2-1.6-6.5-3-9.9-4.2l0,0h0.1c-0.1,0-0.1,0-0.1,0h-0.1l-0.2-0.1l0,0
			h0.1l-0.3-0.2c0,0,0,0-0.1,0c-2.3-0.9-4.7-1.7-7.2-2.3h-0.2c-0.2-0.1-0.4-0.1-0.6-0.2c-24.8-6.6-53.7-4.4-74.3,7.5
			c-45.9,26.4-58.2,82.1-23.7,118.8c27.1,28.9,62.7,24.9,82,13.9c34.4-19.5,40.8-57.7,16.1-81.3c-10.3-9.9-30.4-18-49.4-7.4
			c-12,6.7-18.4,17.8-18.1,28.5c0,0,0,0.1,0,0.2c0,0.3,0,0.6,0,0.9c0,0.1,0,0.2,0,0.2c0.1,3,0.9,6,2.1,8.8c0.8,1.8,1.8,3.4,3,4.9
			c0.1,0.1,0.1,0.2,0.2,0.2c0.1,0.1,0.2,0.2,0.3,0.4s0.4,0.4,0.6,0.6c8.9,9.7,23.9,10.3,33.6,1.5c8.2-7.5,10.1-19.7,4.6-29.3
			c-0.3-0.5-0.6-1-0.6-1s0,0,0.1,0l0.8,0.3C232.6,190.7,243.9,197,243.7,216.5z"/>
		
			<radialGradient id="SVGID_22_" cx="221.4358" cy="282.7727" r="0" gradientTransform="matrix(1 0 0 -1 0 426)" gradientUnits="userSpaceOnUse">
			<stop  offset="0" style="stop-color:#BAE1ED"/>
			<stop  offset="0.37" style="stop-color:#7DC6E3"/>
			<stop  offset="0.71" style="stop-color:#00A8D9"/>
			<stop  offset="1" style="stop-color:#0175B7"/>
		</radialGradient>
		<path class="st30" d="M221.4,143.2L221.4,143.2z"/>
		
			<radialGradient id="SVGID_23_" cx="305.7759" cy="266.3527" r="178.46" gradientTransform="matrix(1 0 0 -1 0 426)" gradientUnits="userSpaceOnUse">
			<stop  offset="0" style="stop-color:#BAE1ED"/>
			<stop  offset="0.37" style="stop-color:#7DC6E3"/>
			<stop  offset="0.71" style="stop-color:#00A8D9"/>
			<stop  offset="1" style="stop-color:#0175B7"/>
		</radialGradient>
		<path class="st31" d="M198.7,245.9c0.7,0,1.4,0.1,2.2,0.1l0,0C200.1,245.9,199.4,245.9,198.7,245.9c-17.2-0.9-32-12.2-37.5-28.5
			C166.6,233.7,181.5,245,198.7,245.9z"/>
		
			<linearGradient id="SVGID_24_" gradientUnits="userSpaceOnUse" x1="190.9616" y1="92.0976" x2="327.8617" y2="247.9276" gradientTransform="matrix(1 0 0 -1 0 426)">
			<stop  offset="0" style="stop-color:#EE9621"/>
			<stop  offset="0.3" style="stop-color:#C65527"/>
			<stop  offset="0.61" style="stop-color:#9B311C"/>
			<stop  offset="0.85" style="stop-color:#801A16"/>
			<stop  offset="1" style="stop-color:#761113"/>
		</linearGradient>
		<path class="st32" d="M290,210.6c0,48.1-38.9,87.1-87,87.1c0,0,0,0,0,0l0,0c48,0,87-39,87-87C290,210.7,290,210.7,290,210.6z"/>
		
			<linearGradient id="SVGID_25_" gradientUnits="userSpaceOnUse" x1="88.8826" y1="181.7756" x2="225.7726" y2="337.6056" gradientTransform="matrix(1 0 0 -1 0 426)">
			<stop  offset="0" style="stop-color:#EE9621"/>
			<stop  offset="0.3" style="stop-color:#C65527"/>
			<stop  offset="0.61" style="stop-color:#9B311C"/>
			<stop  offset="0.85" style="stop-color:#801A16"/>
			<stop  offset="1" style="stop-color:#761113"/>
		</linearGradient>
		<path class="st33" d="M115.6,215.9c0.1-2.2,0.3-3.8,0.4-4.5C115.8,212.1,115.7,213.7,115.6,215.9z"/>
		
			<linearGradient id="SVGID_26_" gradientUnits="userSpaceOnUse" x1="87.5861" y1="182.9225" x2="224.4761" y2="338.7525" gradientTransform="matrix(1 0 0 -1 0 426)">
			<stop  offset="0" style="stop-color:#EE9621"/>
			<stop  offset="0.3" style="stop-color:#C65527"/>
			<stop  offset="0.61" style="stop-color:#9B311C"/>
			<stop  offset="0.85" style="stop-color:#801A16"/>
			<stop  offset="1" style="stop-color:#761113"/>
		</linearGradient>
		<path class="st34" d="M116.1,210.6C116.1,210.6,116.1,210.7,116.1,210.6L116.1,210.6L116.1,210.6z"/>
		
			<linearGradient id="SVGID_27_" gradientUnits="userSpaceOnUse" x1="140.8442" y1="136.1241" x2="277.7443" y2="291.9541" gradientTransform="matrix(1 0 0 -1 0 426)">
			<stop  offset="0" style="stop-color:#EE9621"/>
			<stop  offset="0.3" style="stop-color:#C65527"/>
			<stop  offset="0.61" style="stop-color:#9B311C"/>
			<stop  offset="0.85" style="stop-color:#801A16"/>
			<stop  offset="1" style="stop-color:#761113"/>
		</linearGradient>
		<path class="st35" d="M259.8,154.2l0.3,0.2l-0.2-0.1L259.8,154.2z"/>
		
			<linearGradient id="SVGID_28_" gradientUnits="userSpaceOnUse" x1="139.095" y1="137.6646" x2="275.995" y2="293.4947" gradientTransform="matrix(1 0 0 -1 0 426)">
			<stop  offset="0" style="stop-color:#EE9621"/>
			<stop  offset="0.3" style="stop-color:#C65527"/>
			<stop  offset="0.61" style="stop-color:#9B311C"/>
			<stop  offset="0.85" style="stop-color:#801A16"/>
			<stop  offset="1" style="stop-color:#761113"/>
		</linearGradient>
		<path class="st36" d="M257.8,153l0.2,0.1L257.8,153L257.8,153z"/>
		
			<linearGradient id="SVGID_29_" gradientUnits="userSpaceOnUse" x1="149.7269" y1="128.3254" x2="286.687" y2="284.2354" gradientTransform="matrix(1 0 0 -1 0 426)">
			<stop  offset="0" style="stop-color:#FFC80A"/>
			<stop  offset="0.3" style="stop-color:#F89E1B"/>
			<stop  offset="0.5" style="stop-color:#DF701E"/>
			<stop  offset="0.72" style="stop-color:#C74421"/>
			<stop  offset="0.9" style="stop-color:#B82923"/>
			<stop  offset="1" style="stop-color:#B21F24"/>
		</linearGradient>
		<path class="st37" d="M115.6,216.2c0,24,9.5,47.1,26.4,64.2c7,6.7,14.8,12.5,23.3,17.2c13.3,7,28.1,10.6,43.1,10.5
			c51.2,0,92.8-41.2,92.8-92.1l0,0c0-24.8-12.9-47.9-34.2-60.8c-1.4,0.3-2.7,0.7-4,1.2l0.5,0.4l0.2,0.2c0.5,0.4,1,0.8,1.5,1.2
			l0.3,0.3c0.5,0.4,0.9,0.8,1.4,1.2c0.2,0.1,0.3,0.3,0.5,0.4c0.4,0.4,0.8,0.7,1.2,1.1l0.7,0.6l1,0.9l0.9,1c0.2,0.2,0.4,0.4,0.7,0.7
			c0.5,0.6,1,1.1,1.6,1.7c10.6,12.4,16.5,28.2,16.6,44.5l0,0c0.1,48-38.8,87-86.9,87.1c0,0-0.1,0-0.1,0l0,0c-12,0-23.8-2.5-34.8-7.3
			c-1.1-0.5-2.2-1-3.3-1.5c-0.8-0.4-1.5-0.8-2.3-1.2c-8-4.4-15.3-9.9-21.8-16.3c-15.9-16.2-24.8-38-24.7-60.8l0,0l0,0l0,0
			c0,0-0.1,0.1-0.1,0.7c-0.1,0.8-0.2,2.4-0.4,4.5C115.6,216,115.6,216.1,115.6,216.2l0.3-2.5C115.7,214.8,115.6,216.2,115.6,216.2z"
			/>
		
			<linearGradient id="SVGID_30_" gradientUnits="userSpaceOnUse" x1="149.7249" y1="128.3271" x2="286.6249" y2="284.1571" gradientTransform="matrix(1 0 0 -1 0 426)">
			<stop  offset="0" style="stop-color:#EE9621"/>
			<stop  offset="0.3" style="stop-color:#C65527"/>
			<stop  offset="0.61" style="stop-color:#9B311C"/>
			<stop  offset="0.85" style="stop-color:#801A16"/>
			<stop  offset="1" style="stop-color:#761113"/>
		</linearGradient>
		<path class="st38" d="M115.6,216.2c0,24,9.5,47.1,26.4,64.2c7,6.7,14.8,12.5,23.3,17.2c13.3,7,28.1,10.6,43.1,10.5
			c51.2,0,92.8-41.2,92.8-92.1l0,0c0-24.8-12.9-47.9-34.2-60.8c-1.4,0.3-2.7,0.7-4,1.2l0.5,0.4l0.2,0.2c0.5,0.4,1,0.8,1.5,1.2
			l0.3,0.3c0.5,0.4,0.9,0.8,1.4,1.2c0.2,0.1,0.3,0.3,0.5,0.4c0.4,0.4,0.8,0.7,1.2,1.1l0.7,0.6l1,0.9l0.9,1c0.2,0.2,0.4,0.4,0.7,0.7
			c0.5,0.6,1,1.1,1.6,1.7c10.6,12.4,16.5,28.2,16.6,44.5l0,0c0.1,48-38.8,87-86.9,87.1c0,0-0.1,0-0.1,0l0,0c-12,0-23.8-2.5-34.8-7.3
			c-1.1-0.5-2.2-1-3.3-1.5c-0.8-0.4-1.5-0.8-2.3-1.2c-8-4.4-15.3-9.9-21.8-16.3c-15.9-16.2-24.8-38-24.7-60.8l0,0l0,0l0,0
			c0,0-0.1,0.1-0.1,0.7c-0.1,0.8-0.2,2.4-0.4,4.5C115.6,216,115.6,216.1,115.6,216.2l0.3-2.5C115.7,214.8,115.6,216.2,115.6,216.2z"
			/>
		
			<linearGradient id="SVGID_31_" gradientUnits="userSpaceOnUse" x1="89.9635" y1="180.8348" x2="226.9236" y2="336.7348" gradientTransform="matrix(1 0 0 -1 0 426)">
			<stop  offset="0" style="stop-color:#FFC80A"/>
			<stop  offset="0.3" style="stop-color:#F89E1B"/>
			<stop  offset="0.5" style="stop-color:#DF701E"/>
			<stop  offset="0.72" style="stop-color:#C74421"/>
			<stop  offset="0.9" style="stop-color:#B82923"/>
			<stop  offset="1" style="stop-color:#B21F24"/>
		</linearGradient>
		<path class="st39" d="M115.6,216.2L115.6,216.2c0-0.1,0-0.2,0-0.3C115.6,216,115.6,216.1,115.6,216.2z"/>
		
			<linearGradient id="SVGID_32_" gradientUnits="userSpaceOnUse" x1="89.9635" y1="180.8348" x2="226.9236" y2="336.7348" gradientTransform="matrix(1 0 0 -1 0 426)">
			<stop  offset="0" style="stop-color:#FFC80A"/>
			<stop  offset="0.3" style="stop-color:#F89E1B"/>
			<stop  offset="0.5" style="stop-color:#DF701E"/>
			<stop  offset="0.72" style="stop-color:#C74421"/>
			<stop  offset="0.9" style="stop-color:#B82923"/>
			<stop  offset="1" style="stop-color:#B21F24"/>
		</linearGradient>
		<path class="st40" d="M115.6,216.2L115.6,216.2c0-0.1,0-0.2,0-0.3C115.6,216,115.6,216.1,115.6,216.2z"/>
		
			<linearGradient id="SVGID_33_" gradientUnits="userSpaceOnUse" x1="89.9584" y1="180.8293" x2="226.8584" y2="336.6593" gradientTransform="matrix(1 0 0 -1 0 426)">
			<stop  offset="0" style="stop-color:#EE9621"/>
			<stop  offset="0.3" style="stop-color:#C65527"/>
			<stop  offset="0.61" style="stop-color:#9B311C"/>
			<stop  offset="0.85" style="stop-color:#801A16"/>
			<stop  offset="1" style="stop-color:#761113"/>
		</linearGradient>
		<path class="st41" d="M115.6,216.2L115.6,216.2c0-0.1,0-0.2,0-0.3C115.6,216,115.6,216.1,115.6,216.2z"/>
		<path class="st0" d="M164.9,288.9c1.1,0.5,2.2,1,3.3,1.5"/>
		
			<linearGradient id="SVGID_34_" gradientUnits="userSpaceOnUse" x1="142.2555" y1="134.8855" x2="279.2155" y2="290.7954" gradientTransform="matrix(1 0 0 -1 0 426)">
			<stop  offset="0" style="stop-color:#FFC80A"/>
			<stop  offset="0.3" style="stop-color:#F89E1B"/>
			<stop  offset="0.5" style="stop-color:#DF701E"/>
			<stop  offset="0.72" style="stop-color:#C74421"/>
			<stop  offset="0.9" style="stop-color:#B82923"/>
			<stop  offset="1" style="stop-color:#B21F24"/>
		</linearGradient>
		<path class="st42" d="M259.9,154.3L259.9,154.3l0.2,0.1l1.6,1.1l0.2,0.2c0.4,0.3,0.7,0.5,1.1,0.8
			C262.9,156.4,261.8,155.5,259.9,154.3z"/>
		
			<linearGradient id="SVGID_35_" gradientUnits="userSpaceOnUse" x1="142.2504" y1="134.8899" x2="279.1505" y2="290.7199" gradientTransform="matrix(1 0 0 -1 0 426)">
			<stop  offset="0" style="stop-color:#EE9621"/>
			<stop  offset="0.3" style="stop-color:#C65527"/>
			<stop  offset="0.61" style="stop-color:#9B311C"/>
			<stop  offset="0.85" style="stop-color:#801A16"/>
			<stop  offset="1" style="stop-color:#761113"/>
		</linearGradient>
		<path class="st43" d="M259.9,154.3L259.9,154.3l0.2,0.1l1.6,1.1l0.2,0.2c0.4,0.3,0.7,0.5,1.1,0.8
			C262.9,156.4,261.8,155.5,259.9,154.3z"/>
		
			<radialGradient id="SVGID_36_" cx="305.7759" cy="266.3527" r="178.46" gradientTransform="matrix(1 0 0 -1 0 426)" gradientUnits="userSpaceOnUse">
			<stop  offset="0" style="stop-color:#BAE1ED"/>
			<stop  offset="0.37" style="stop-color:#7DC6E3"/>
			<stop  offset="0.71" style="stop-color:#00A8D9"/>
			<stop  offset="1" style="stop-color:#0175B7"/>
		</radialGradient>
		<path class="st44" d="M259.9,154.3L259.9,154.3c-0.6-0.4-1.3-0.8-2-1.3l0.1,0.1c0.6,0.4,1.2,0.8,1.8,1.1L259.9,154.3L259.9,154.3z
			"/>
		
			<linearGradient id="SVGID_37_" gradientUnits="userSpaceOnUse" x1="139.9612" y1="136.8968" x2="276.8613" y2="292.7267" gradientTransform="matrix(1 0 0 -1 0 426)">
			<stop  offset="0" style="stop-color:#EE9621"/>
			<stop  offset="0.3" style="stop-color:#C65527"/>
			<stop  offset="0.61" style="stop-color:#9B311C"/>
			<stop  offset="0.85" style="stop-color:#801A16"/>
			<stop  offset="1" style="stop-color:#761113"/>
		</linearGradient>
		<path class="st45" d="M259.9,154.3L259.9,154.3c-0.6-0.4-1.3-0.8-2-1.3l0.1,0.1c0.6,0.4,1.2,0.8,1.8,1.1L259.9,154.3L259.9,154.3z
			"/>
		
			<radialGradient id="SVGID_38_" cx="295.4059" cy="243.5927" r="146.74" gradientTransform="matrix(1 0 0 -1 0 426)" gradientUnits="userSpaceOnUse">
			<stop  offset="0" style="stop-color:#4FC8F4"/>
			<stop  offset="1" style="stop-color:#0D4D95"/>
		</radialGradient>
		<path class="st46" d="M226.8,143.3c3.8,0.2,7.6,0.8,11.3,1.6l-0.7-0.2C233.9,144,230.3,143.5,226.8,143.3z"/>
		
			<radialGradient id="SVGID_39_" cx="295.4059" cy="243.5927" r="146.74" gradientTransform="matrix(1 0 0 -1 0 426)" gradientUnits="userSpaceOnUse">
			<stop  offset="0" style="stop-color:#4FC8F4"/>
			<stop  offset="1" style="stop-color:#0D4D95"/>
		</radialGradient>
		<path class="st47" d="M221.7,143.2c0.8,0,1.6,0,2.4,0H223C222.5,143.2,222.1,143.2,221.7,143.2z"/>
		
			<radialGradient id="SVGID_40_" cx="295.4059" cy="243.5927" r="146.74" gradientTransform="matrix(1 0 0 -1 0 426)" gradientUnits="userSpaceOnUse">
			<stop  offset="0" style="stop-color:#4FC8F4"/>
			<stop  offset="1" style="stop-color:#0D4D95"/>
		</radialGradient>
		<path class="st48" d="M226.2,187.9c0.3,0.1,0.7,0.3,1.1,0.5l-0.5-0.3L226.2,187.9z"/>
		
			<radialGradient id="SVGID_41_" cx="295.4059" cy="243.5927" r="146.74" gradientTransform="matrix(1 0 0 -1 0 426)" gradientUnits="userSpaceOnUse">
			<stop  offset="0" style="stop-color:#4FC8F4"/>
			<stop  offset="1" style="stop-color:#0D4D95"/>
		</radialGradient>
		<path class="st49" d="M228.2,188.9l-0.4-0.3L228.2,188.9z"/>
		
			<radialGradient id="SVGID_42_" cx="295.4059" cy="243.5927" r="146.74" gradientTransform="matrix(1 0 0 -1 0 426)" gradientUnits="userSpaceOnUse">
			<stop  offset="0" style="stop-color:#4FC8F4"/>
			<stop  offset="1" style="stop-color:#0D4D95"/>
		</radialGradient>
		<path class="st50" d="M231.6,232.9c-7.2,8.1-18.7,13-30.8,13l0,0C213,245.9,224.4,241,231.6,232.9z"/>
		
			<radialGradient id="SVGID_43_" cx="160.6759" cy="210.1527" r="0" gradientTransform="matrix(1 0 0 -1 0 426)" gradientUnits="userSpaceOnUse">
			<stop  offset="0" style="stop-color:#4FC8F4"/>
			<stop  offset="1" style="stop-color:#0D4D95"/>
		</radialGradient>
		<path class="st51" d="M160.7,215.8L160.7,215.8L160.7,215.8z"/>
		
			<radialGradient id="SVGID_44_" cx="295.4059" cy="243.5927" r="146.74" gradientTransform="matrix(1 0 0 -1 0 426)" gradientUnits="userSpaceOnUse">
			<stop  offset="0" style="stop-color:#4FC8F4"/>
			<stop  offset="1" style="stop-color:#0D4D95"/>
		</radialGradient>
		<path class="st52" d="M237.2,224.2c-1.3,3-3,5.8-5.2,8.3c-0.1,0.1-0.1,0.2-0.2,0.3c0.1-0.1,0.2-0.2,0.2-0.3
			C234.2,230,235.9,227.2,237.2,224.2z"/>
		
			<radialGradient id="SVGID_45_" cx="295.4059" cy="243.5927" r="146.74" gradientTransform="matrix(1 0 0 -1 0 426)" gradientUnits="userSpaceOnUse">
			<stop  offset="0" style="stop-color:#4FC8F4"/>
			<stop  offset="1" style="stop-color:#0D4D95"/>
		</radialGradient>
		<path class="st53" d="M238,222.2c0.9-2.7,1.5-5.5,1.7-8.4C239.5,216.7,238.9,219.5,238,222.2z"/>
		
			<radialGradient id="SVGID_46_" cx="305.7759" cy="266.3527" r="178.46" gradientTransform="matrix(1 0 0 -1 0 426)" gradientUnits="userSpaceOnUse">
			<stop  offset="0" style="stop-color:#BAE1ED"/>
			<stop  offset="0.37" style="stop-color:#7DC6E3"/>
			<stop  offset="0.71" style="stop-color:#00A8D9"/>
			<stop  offset="1" style="stop-color:#0175B7"/>
		</radialGradient>
		<path class="st54" d="M235.7,144.4c6.8-2,13.8-3.1,20.8-3.3c-7-2.5-14.3-4.3-21.7-5.3c-4.4-0.5-8.8-0.7-13.2-0.5
			c-16.7,0.6-32.7,6.7-45.7,17.2c-1.5,1.3-2.4,2.1-2.4,2.1c-0.7,0.6-1.5,1.3-2.2,1.9c-3.1,3-6,6.2-8.6,9.7l0,0
			c-0.1,0.2-0.3,0.4-0.4,0.6c-4.6,6.4-8.1,13.4-10.4,20.9c-0.3,1.1-0.5,2.3-0.7,3.4c-0.7,3.3-1,6.6-1,9.9c0,0.3,0,0.9,0,1.8
			c0,0.4,0,0.9,0.1,1.5c0.2,3.8,0.8,9.9,2.6,14.4l0,0c5.7,19.6,23.3,33.5,43.7,34.6c0.8,0.1,1.7,0.1,2.5,0.1
			c13.9,0,27.1-5.6,35.4-15l0.2-0.2c0.1-0.1,0.2-0.2,0.2-0.3c2.5-2.8,4.5-6.1,6-9.6c0.3-0.8,0.6-1.5,0.9-2.2
			c1.1-3.1,1.7-6.4,1.9-9.6c0.2-19.5-11.1-25.8-17-28.4l0.5,0.3l0.4,0.2l0.4,0.3c0.3,0.2,0.7,0.4,1.1,0.6l0,0l0.8,0.5l0.1,0.1
			c0.2,0.2,0.5,0.3,0.7,0.5l0.2,0.1l0.7,0.6l0.2,0.1c0.3,0.2,0.6,0.5,0.8,0.8l0,0c0.2,0.2,0.3,0.4,0.5,0.6l0.1,0.1
			c0.2,0.2,0.3,0.4,0.5,0.5l0.1,0.1l0.4,0.5l0.1,0.2c0.1,0.2,0.3,0.4,0.4,0.5l0.2,0.2c0.1,0.2,0.2,0.3,0.3,0.5s0.1,0.2,0.2,0.3
			s0.2,0.3,0.3,0.5s0.1,0.2,0.2,0.4l0.3,0.5l0.2,0.4c0.1,0.2,0.2,0.3,0.2,0.5s0.1,0.3,0.2,0.5l0.2,0.5c0.1,0.2,0.2,0.4,0.2,0.6
			l0.2,0.5c0.1,0.2,0.2,0.4,0.2,0.6s0.1,0.3,0.2,0.5s0.2,0.5,0.2,0.7s0.1,0.3,0.1,0.4l0.2,0.8c0,0.1,0.1,0.3,0.1,0.4
			s0.1,0.6,0.2,0.8l0.1,0.4c0.1,0.3,0.1,0.6,0.2,0.9c0,0.1,0,0.2,0.1,0.4c0.1,0.3,0.1,0.7,0.2,1c0,0.1,0,0.2,0,0.4
			c0.1,0.4,0.1,0.8,0.1,1.1v0.3c0,0.4,0.1,0.8,0.1,1.2c0,0.1,0,0.2,0,0.3c0,0.4,0,0.9,0.1,1.4v0.2c0,0.5,0,1.1,0,1.6
			c-0.2,2.9-0.8,5.7-1.7,8.4c-0.2,0.6-0.5,1.3-0.8,2c-1.3,3-3,5.8-5.2,8.3c-0.1,0.1-0.1,0.2-0.2,0.3c0,0.1-0.1,0.1-0.2,0.2
			c-7.2,8.1-18.7,13-30.8,13l0,0c-0.7,0-1.5,0-2.2-0.1c-17.2-0.9-32-12.2-37.5-28.5c-0.2-0.5-0.3-1-0.5-1.6l0,0
			c-1.5-4-2-9.3-2.2-12.6c0-0.5-0.1-0.9-0.1-1.3c0-0.8,0-1.3,0-1.5c-0.1-2.9,0.2-5.8,0.8-8.6c0.2-1,0.3-1.9,0.6-2.9
			c2-6.5,5.1-12.6,9-18.1l0.4-0.5l0,0c2.3-3,4.8-5.8,7.5-8.4c0.6-0.6,1.2-1.1,1.9-1.7c0,0,0.7-0.7,2.1-1.8c0.7-0.6,1.4-1.1,2.2-1.7
			c0.1-0.1,0.2-0.2,0.4-0.3c0.6-0.5,1.2-0.9,1.9-1.3c0.2-0.1,0.4-0.3,0.6-0.4c0.6-0.4,1.1-0.8,1.7-1.1l0.8-0.5
			c0.5-0.3,1.1-0.6,1.6-1c0.3-0.2,0.6-0.3,0.9-0.5c0.5-0.3,1-0.6,1.5-0.8c0.4-0.2,0.7-0.4,1.1-0.6s0.9-0.4,1.4-0.7s0.9-0.4,1.3-0.6
			l1.2-0.5l1.5-0.6c0.4-0.1,0.7-0.3,1.1-0.4c0.5-0.2,1.1-0.4,1.7-0.6l0.9-0.3c0.6-0.2,1.2-0.4,1.8-0.6l0.8-0.2l2-0.5l0.7-0.2
			c0.7-0.2,1.4-0.3,2.2-0.5l0.6-0.1c0.8-0.1,1.5-0.3,2.3-0.4l0.4-0.1c0.8-0.1,1.6-0.2,2.4-0.3h0.3c0.8-0.1,1.7-0.2,2.6-0.2h0.3
			c0.9,0,1.8-0.1,2.7-0.1h0.2c0.4,0,0.9,0,1.3,0h1.1h0.2c0.8,0,1.7,0.1,2.5,0.1c3.6,0.2,7.1,0.7,10.7,1.4
			C236.8,144.6,236.3,144.5,235.7,144.4z"/>
		
			<radialGradient id="SVGID_47_" cx="295.4059" cy="243.5927" r="146.74" gradientTransform="matrix(1 0 0 -1 0 426)" gradientUnits="userSpaceOnUse">
			<stop  offset="0" style="stop-color:#4FC8F4"/>
			<stop  offset="1" style="stop-color:#0D4D95"/>
		</radialGradient>
		<path class="st55" d="M235.7,144.4c6.8-2,13.8-3.1,20.8-3.3c-7-2.5-14.3-4.3-21.7-5.3c-4.4-0.5-8.8-0.7-13.2-0.5
			c-16.7,0.6-32.7,6.7-45.7,17.2c-1.5,1.3-2.4,2.1-2.4,2.1c-0.7,0.6-1.5,1.3-2.2,1.9c-3.1,3-6,6.2-8.6,9.7l0,0
			c-0.1,0.2-0.3,0.4-0.4,0.6c-4.6,6.4-8.1,13.4-10.4,20.9c-0.3,1.1-0.5,2.3-0.7,3.4c-0.7,3.3-1,6.6-1,9.9c0,0.3,0,0.9,0,1.8
			c0,0.4,0,0.9,0.1,1.5c0.2,3.8,0.8,9.9,2.6,14.4l0,0c5.7,19.6,23.3,33.5,43.7,34.6c0.8,0.1,1.7,0.1,2.5,0.1
			c13.9,0,27.1-5.6,35.4-15l0.2-0.2c0.1-0.1,0.2-0.2,0.2-0.3c2.5-2.8,4.5-6.1,6-9.6c0.3-0.8,0.6-1.5,0.9-2.2
			c1.1-3.1,1.7-6.4,1.9-9.6c0.2-19.5-11.1-25.8-17-28.4l0.5,0.3l0.4,0.2l0.4,0.3c0.3,0.2,0.7,0.4,1.1,0.6l0,0l0.8,0.5l0.1,0.1
			c0.2,0.2,0.5,0.3,0.7,0.5l0.2,0.1l0.7,0.6l0.2,0.1c0.3,0.2,0.6,0.5,0.8,0.8l0,0c0.2,0.2,0.3,0.4,0.5,0.6l0.1,0.1
			c0.2,0.2,0.3,0.4,0.5,0.5l0.1,0.1l0.4,0.5l0.1,0.2c0.1,0.2,0.3,0.4,0.4,0.5l0.2,0.2c0.1,0.2,0.2,0.3,0.3,0.5s0.1,0.2,0.2,0.3
			s0.2,0.3,0.3,0.5s0.1,0.2,0.2,0.4l0.3,0.5l0.2,0.4c0.1,0.2,0.2,0.3,0.2,0.5s0.1,0.3,0.2,0.5l0.2,0.5c0.1,0.2,0.2,0.4,0.2,0.6
			l0.2,0.5c0.1,0.2,0.2,0.4,0.2,0.6s0.1,0.3,0.2,0.5s0.2,0.5,0.2,0.7s0.1,0.3,0.1,0.4l0.2,0.8c0,0.1,0.1,0.3,0.1,0.4
			s0.1,0.6,0.2,0.8l0.1,0.4c0.1,0.3,0.1,0.6,0.2,0.9c0,0.1,0,0.2,0.1,0.4c0.1,0.3,0.1,0.7,0.2,1c0,0.1,0,0.2,0,0.4
			c0.1,0.4,0.1,0.8,0.1,1.1v0.3c0,0.4,0.1,0.8,0.1,1.2c0,0.1,0,0.2,0,0.3c0,0.4,0,0.9,0.1,1.4v0.2c0,0.5,0,1.1,0,1.6
			c-0.2,2.9-0.8,5.7-1.7,8.4c-0.2,0.6-0.5,1.3-0.8,2c-1.3,3-3,5.8-5.2,8.3c-0.1,0.1-0.1,0.2-0.2,0.3c0,0.1-0.1,0.1-0.2,0.2
			c-7.2,8.1-18.7,13-30.8,13l0,0c-0.7,0-1.5,0-2.2-0.1c-17.2-0.9-32-12.2-37.5-28.5c-0.2-0.5-0.3-1-0.5-1.6l0,0
			c-1.5-4-2-9.3-2.2-12.6c0-0.5-0.1-0.9-0.1-1.3c0-0.8,0-1.3,0-1.5c-0.1-2.9,0.2-5.8,0.8-8.6c0.2-1,0.3-1.9,0.6-2.9
			c2-6.5,5.1-12.6,9-18.1l0.4-0.5l0,0c2.3-3,4.8-5.8,7.5-8.4c0.6-0.6,1.2-1.1,1.9-1.7c0,0,0.7-0.7,2.1-1.8c0.7-0.6,1.4-1.1,2.2-1.7
			c0.1-0.1,0.2-0.2,0.4-0.3c0.6-0.5,1.2-0.9,1.9-1.3c0.2-0.1,0.4-0.3,0.6-0.4c0.6-0.4,1.1-0.8,1.7-1.1l0.8-0.5
			c0.5-0.3,1.1-0.6,1.6-1c0.3-0.2,0.6-0.3,0.9-0.5c0.5-0.3,1-0.6,1.5-0.8c0.4-0.2,0.7-0.4,1.1-0.6s0.9-0.4,1.4-0.7s0.9-0.4,1.3-0.6
			l1.2-0.5l1.5-0.6c0.4-0.1,0.7-0.3,1.1-0.4c0.5-0.2,1.1-0.4,1.7-0.6l0.9-0.3c0.6-0.2,1.2-0.4,1.8-0.6l0.8-0.2l2-0.5l0.7-0.2
			c0.7-0.2,1.4-0.3,2.2-0.5l0.6-0.1c0.8-0.1,1.5-0.3,2.3-0.4l0.4-0.1c0.8-0.1,1.6-0.2,2.4-0.3h0.3c0.8-0.1,1.7-0.2,2.6-0.2h0.3
			c0.9,0,1.8-0.1,2.7-0.1h0.2c0.4,0,0.9,0,1.3,0h1.1h0.2c0.8,0,1.7,0.1,2.5,0.1c3.6,0.2,7.1,0.7,10.7,1.4
			C236.8,144.6,236.3,144.5,235.7,144.4z"/>
		
			<radialGradient id="SVGID_48_" cx="295.4059" cy="243.5927" r="146.74" gradientTransform="matrix(1 0 0 -1 0 426)" gradientUnits="userSpaceOnUse">
			<stop  offset="0" style="stop-color:#4FC8F4"/>
			<stop  offset="1" style="stop-color:#0D4D95"/>
		</radialGradient>
		<path class="st56" d="M226.8,143.3c-0.8,0-1.6-0.1-2.5-0.1C225.1,143.2,225.9,143.3,226.8,143.3z"/>
		
			<radialGradient id="SVGID_49_" cx="305.7759" cy="266.3527" r="178.46" gradientTransform="matrix(1 0 0 -1 0 426)" gradientUnits="userSpaceOnUse">
			<stop  offset="0" style="stop-color:#BAE1ED"/>
			<stop  offset="0.37" style="stop-color:#7DC6E3"/>
			<stop  offset="0.71" style="stop-color:#00A8D9"/>
			<stop  offset="1" style="stop-color:#0175B7"/>
		</radialGradient>
		<path class="st57" d="M226.8,143.3c-0.8,0-1.6-0.1-2.5-0.1C225.1,143.2,225.9,143.3,226.8,143.3z"/>
		
			<radialGradient id="SVGID_50_" cx="295.4059" cy="243.5927" r="146.74" gradientTransform="matrix(1 0 0 -1 0 426)" gradientUnits="userSpaceOnUse">
			<stop  offset="0" style="stop-color:#4FC8F4"/>
			<stop  offset="1" style="stop-color:#0D4D95"/>
		</radialGradient>
		<path class="st58" d="M226.8,143.3c-0.8,0-1.6-0.1-2.5-0.1C225.1,143.2,225.9,143.3,226.8,143.3z"/>
		
			<radialGradient id="SVGID_51_" cx="295.4059" cy="243.5927" r="146.74" gradientTransform="matrix(1 0 0 -1 0 426)" gradientUnits="userSpaceOnUse">
			<stop  offset="0" style="stop-color:#4FC8F4"/>
			<stop  offset="1" style="stop-color:#0D4D95"/>
		</radialGradient>
		<path class="st59" d="M229.2,189.5c-0.4-0.2-0.7-0.4-1.1-0.6C228.5,189,228.9,189.3,229.2,189.5z"/>
		
			<radialGradient id="SVGID_52_" cx="305.7759" cy="266.3527" r="178.46" gradientTransform="matrix(1 0 0 -1 0 426)" gradientUnits="userSpaceOnUse">
			<stop  offset="0" style="stop-color:#BAE1ED"/>
			<stop  offset="0.37" style="stop-color:#7DC6E3"/>
			<stop  offset="0.71" style="stop-color:#00A8D9"/>
			<stop  offset="1" style="stop-color:#0175B7"/>
		</radialGradient>
		<path class="st60" d="M229.2,189.5c-0.4-0.2-0.7-0.4-1.1-0.6C228.5,189,228.9,189.3,229.2,189.5z"/>
		
			<radialGradient id="SVGID_53_" cx="295.4059" cy="243.5927" r="146.74" gradientTransform="matrix(1 0 0 -1 0 426)" gradientUnits="userSpaceOnUse">
			<stop  offset="0" style="stop-color:#4FC8F4"/>
			<stop  offset="1" style="stop-color:#0D4D95"/>
		</radialGradient>
		<path class="st61" d="M229.2,189.5c-0.4-0.2-0.7-0.4-1.1-0.6C228.5,189,228.9,189.3,229.2,189.5z"/>
		
			<radialGradient id="SVGID_54_" cx="295.4059" cy="243.5927" r="146.74" gradientTransform="matrix(1 0 0 -1 0 426)" gradientUnits="userSpaceOnUse">
			<stop  offset="0" style="stop-color:#4FC8F4"/>
			<stop  offset="1" style="stop-color:#0D4D95"/>
		</radialGradient>
		<path class="st62" d="M227.7,188.6l-0.4-0.2L227.7,188.6z"/>
		
			<radialGradient id="SVGID_55_" cx="305.7759" cy="266.3527" r="178.46" gradientTransform="matrix(1 0 0 -1 0 426)" gradientUnits="userSpaceOnUse">
			<stop  offset="0" style="stop-color:#BAE1ED"/>
			<stop  offset="0.37" style="stop-color:#7DC6E3"/>
			<stop  offset="0.71" style="stop-color:#00A8D9"/>
			<stop  offset="1" style="stop-color:#0175B7"/>
		</radialGradient>
		<path class="st63" d="M227.7,188.6l-0.4-0.2L227.7,188.6z"/>
		
			<radialGradient id="SVGID_56_" cx="295.4059" cy="243.5927" r="146.74" gradientTransform="matrix(1 0 0 -1 0 426)" gradientUnits="userSpaceOnUse">
			<stop  offset="0" style="stop-color:#4FC8F4"/>
			<stop  offset="1" style="stop-color:#0D4D95"/>
		</radialGradient>
		<path class="st64" d="M227.7,188.6l-0.4-0.2L227.7,188.6z"/>
		<path class="st0" d="M224.3,143.2H224"/>
		<path class="st0" d="M230.8,190.7l0.2,0.1"/>
		<path class="st0" d="M230.1,190.1L230.1,190.1"/>
		<path class="st0" d="M229.2,189.5L229.2,189.5"/>
		<path class="st0" d="M231.6,191.4l0.2,0.1"/>
		<path class="st65" d="M259.9,154.3c1.9,1.2,2.9,2.1,3,2.2l0,0c1.3-0.5,2.6-0.9,4-1.2c21-5.1,42.8,9.1,42.8,9.1l0,0
			c-16.1-19.9-37.6-23.7-53.2-23.3c-7.1,0.2-14.1,1.3-20.8,3.3c0.6,0.1,1.2,0.2,1.7,0.4l0.7,0.2c6.7,1.6,13.2,4.2,19.2,7.7l0.4,0.2
			l0.2,0.1l0.1,0.1C258.7,153.5,259.4,153.9,259.9,154.3z"/>
		<path class="st66" d="M281.3,308.9c0,0,0.1-0.1-0.5,0.4l-0.3,0.2c0.2-0.2,0.5-0.3,0.7-0.5L281.3,308.9z"/>
		<path class="st67" d="M257.5,123.1l0.2,0.1h0.1l0,0C257.7,123.1,257.6,123.1,257.5,123.1L257.5,123.1
			C257.5,123.1,257.5,123.1,257.5,123.1z"/>
		<path class="st67" d="M257.8,123.3h-0.1C257.7,123.3,257.7,123.3,257.8,123.3z"/>
	</g>
</g>
</svg>
