<?xml version="1.0" encoding="utf-8"?>
<!-- Generator: Adobe Illustrator 22.0.1, SVG Export Plug-In . SVG Version: 6.00 Build 0)  -->
<svg version="1.1" id="Layer_1" xmlns="http://www.w3.org/2000/svg" xmlns:xlink="http://www.w3.org/1999/xlink" x="0px" y="0px"
	 viewBox="0 0 570 300" style="enable-background:new 0 0 570 300;" xml:space="preserve">
<style type="text/css">
	.st0{fill:#E50505;stroke:#FFFFFF;stroke-width:0.4;stroke-miterlimit:10;}
	.st1{fill:#C6C6C6;stroke:#FFFFFF;stroke-width:0.7;stroke-miterlimit:10;}
</style>
<g>
	<path class="st0" d="M203,67c1.5,2.3-0.4,6.1-2,7c-1.5,0.8-2.7,4.2-4.2,4.2s0,5.8,2.7,7c2.7,1.2,2.7,3,2.7,4.2s3.8,2.3,5,3.8
		c2.5,3.4,2.6,11.9,3.7,13.2c6.7-4.5,2.1-8.5,4.5-10.4c0.9-0.8,4.3-4.5,5-4.7c3.5-1.5,2.2,1.5,2.9-5.4c-1.5-1-2.5-2.1-2.5-2.8
		c0-1.2-1.7-3.4-2.7-2.2c-1,1.2-4.6,0.2-5.1-2.2c-0.4-2.4,2.4-2.3,5.1-4.5c2.7-2.2,3-6.4,0.2-8.7c-2.9-2.3-0.9-3.6,1.2-5.6
		c2-2.1,0.2-3.3-0.9-2.3c-1.1,1-2.8,1.2-3-1.1c-0.3-2.3-6.5-2.7-8.9-0.4c-0.8,0.8-2.1,1-3.5,1C202.4,60.6,201.9,65.5,203,67L203,67z
		"/>
	<path class="st0" d="M137.1,80.2c0,2.6-0.9,5.7,0.4,5.9c1.7,0.3,4.2,7,1.1,7c-1.2,0-9.5-0.8-9.5,0.4c0,1.2-1.9,2.3-3.8,2.3
		c-1.9,0-1.9-0.4-2.1,1.7c-0.2,2.1,0.4,4-0.8,4c-1.2,0-1.1,1.7-2.9,1.9c-1.9,0.2-4.9-0.2-4.9,1.7c0,6.1-9.1,2.5-9.1,5.1
		c0,1.7-2.8,0.4-4.2,1.2c-1.5,0.8-10.2,5.9-10.3,6.8c-0.1,0.4,0,4.6,0.2,8.8c0.4,1.1,60.9,39.8,64.2,43.1c1.8,1.8,4.1,6,4.1,6
		c5.2,0.5,10.5,2.4,10.5,9.1c22-4.9,13.7-3.8,28.2-14.2l27.9-17.4c-0.9-3-1.8-5.5-3.3-5.5c-1.7,0-2.9-1.4-4.8-1.4
		c-6.7,0-3.4-4.8-5.3-7.7c-3.4-5.1-4.3-3-0.1-7.3c0.3-0.3-2.4-5.3-1-7c1-1.2,1.5-2.3,0.4-4.5c-1.1-2.1,1.4-4,0.2-6.8
		c-2.5-5.6-4.5-5.3-1.5-7.3c-1-1.3-1.2-9.9-3.7-13.2c-1.2-1.5-5-2.7-5-3.8s0-3-2.7-4.2c-2.7-1.2-4.2-7-2.7-7s2.7-3.5,4.2-4.2
		c1.5-0.8,3.5-4.6,2-7c-1-1.5-0.5-6.3,0.1-10.2c-2.6,0-5.3-1-6.1-1.2c-1.2-0.4-4.5,0.5-6.6,0.7c-2.1,0.1-7.3,3.5-9,1.8
		c-1.7-1.6-19.4,1.2-24.3,1.4c-5,0.2-7.1,5.3-10.1,5.3c-6.5,0-9.5,6.3-12.7,6.3C135.7,74.8,137.1,74.8,137.1,80.2L137.1,80.2z"/>
	<path class="st0" d="M220.2,91.2c0,0-6.9,4.9-5.5,7.6c0.4,0.8-0.3,3.6-1.2,5.2s-3.9,2.8-4.1,3.7c-0.2,1,1.7,3.2,2.9,6
		c1.2,2.8-1.2,4.7-0.2,6.8c1.1,2.1,0.4,3.3-0.4,4.5c-1.4,1.7,1.2,6.8,1,7c-4.2,4.3-3.4,2.1,0.1,7.3c1.9,2.9-1.4,7.7,5.3,7.7
		c1.9,0,3.1,1.4,4.8,1.4c1.5,0,2.4,2.5,3.3,5.5c5.3,0.1,10.5,0.7,13.6,6l11-6l49.5,26.6V177h6c0,0,0-59.3,0-63.6c0-4.4-2-7.2,0-9.6
		c2.2-2.7-1.3-2.4,1.4-9.6c-1.3-1.8-1.7-1.4-8.9-2.6c-5.7-0.9-3.6-4.7-9.9-5.1s-14.3,4.7-14.5,7.4c-0.1,2.7,2.9,5.7,0.9,8.5
		c-2.1,2.8-6.7,3-10,0.1c-3.3-2.9-8-4.3-12-4.3c-3.9,0-6.7-2.5-6.4-4.6c0.3-2.1-1-3-4.2-3.7c-3.3-0.7-6.1-3.4-11.8-2.4
		c-3.1,0.5-5.7-0.4-7.5-1.6C222.4,92.7,223.7,89.7,220.2,91.2L220.2,91.2z"/>
	<path class="st0" d="M62.3,158.6c0-1.5,6.8-3.4,6.8-4.9s0-17.4,0-17.4s21.1,0.4,21.8,0c0.6-0.4-0.2-17.4,0-18.2
		c0.2-0.8,8.9-5.9,10.3-6.8c1.5-0.8,4.2,0.4,4.2-1.2c0-2.5,9.1,1,9.1-5.1c0-1.9,2.9-1.5,4.9-1.7c1.9-0.2,1.7-1.9,2.9-1.9
		c1.2,0,0.6-1.9,0.8-4c0.2-2.1,0.2-1.7,2.1-1.7c1.9,0,3.8-1.1,3.8-2.3c0-1.2,8.3-0.4,9.5-0.4c3.1,0,0.6-6.7-1.1-7
		c-2-0.4,1.5-7.8-2.3-12.7c-0.3-0.4-0.7-1.2-1.1-2c-2.3,0.1-5.1-1.7-7.5-1.8c-3.4-0.1-8.6,1.6-11-1.2c-8-8.9-8.3,3.5-13.2,10.4
		c-2,2.8-7.3,4.7-9.9,4.7s-2.9,3.9-4.9,5.5c-2,1.6-1.2,4.2-3.7,6.1c-2.4,2-1.2,7.8,0,9.9c1.2,2.1-4.5,8.7-7.7,10.7
		c-3.3,1.9-4.3,5.5-9.5,6.4c-4.7,0.8-6.8,4.4-8.3,8.3c-1.2,3-8.4,7.6-8.6,11.9c-0.4,5.3-12.6,17.6-13.4,26.4h25.6
		C62.3,168.7,62.3,160.1,62.3,158.6L62.3,158.6z M90.6,126c-0.1-0.2-0.1-0.4-0.3-0.5C90.4,125.6,90.5,125.8,90.6,126L90.6,126z"/>
	<path class="st0" d="M42.5,201.7c7.9,1.6,9.1-4.2,14.6,2.8h2.3c2.7,7.3,5.4,4.5,7.7,9c2-0.1,3.5-0.7,3.5-2c0-1.8,0.9-4.1,3.7-1.4
		c2.9,2.6,2.9,0.3,3.5-0.6c0.6-0.9,2.6,0.3,4.4,0.3s4.1-1.2,4.1-1.2s24.1,0.3,25.3-0.3c1.2-0.6,0.9-5.5,0.9-5.5l-2-2l-6.1-57.3h11
		c-11.6-7.7-23.6-15.1-24.2-16.1c0.1,4.5,0.2,9.1-0.2,9.4c-0.6,0.4-21.8,0-21.8,0s0,15.9,0,17.4s-6.8,3.4-6.8,4.9
		c0,1.5,0,10.2,0,10.2H36.7c-0.4,4.2,2.1,5.6,3.7,7.3c2,2.3-1.5,6.3,1.4,10.4c2.9,4.1-0.7,10.4-2.1,12.7c-0.8,1.2-0.9,3.4-1.1,5.6
		C41,204.3,40.2,201.2,42.5,201.7L42.5,201.7z"/>
	<path class="st1" d="M370.4,109.5l-4.6-11.4c-2,3-3-0.5-7.7,0.6c-2.9,0.8-5.3-0.3-8.2-1.7c-2.9-1.4-12.3,0.4-13.5,2.2
		c-2.9,4.3-10.2-1.9-19.2-2.7c-4.9-0.4-8.9-1.2-9.8-2.3c-2.7,7.2,0.9,7-1.4,9.6c-2,2.4,0,5.2,0,9.6c0,3,0,32.3,0,50h39.6
		c0,0,1.2-0.8,2.3-1.5c1.2-0.8,3,1.2,3,1.2h8.5c0,0,1.5,2,3.5,2c2,0,0.8-3,3.8-3c3,0,2.3-4.6,4.2-4.6c2.1,0,1.4,0.4,3.7-2.6
		c-0.2-0.8-0.2-1.7,0-2.6c0.4-3-1.6-2.9-2.9-7.2c-1.3-4.3-6.7-10.8-7-13.3c-0.2-2.5-3.2-3.9-3-6.6c0.1-2.7-1.4-2.9-4.5-7.2
		c-2.9-4.2-3.8-11.6-2.9-11.9c1.4-0.4,6.6,16.8,10.9,16.8c2.4,0,3.4-11.2,4.1-8.9L370.4,109.5L370.4,109.5z"/>
	<path class="st1" d="M379.9,77.9c1.2-1.1,2-5.3-3.1-5.1c-0.9,5.1-2,4.5-4.9,10.6l3,1.3C376.5,81.9,378.9,78.7,379.9,77.9
		L379.9,77.9z"/>
	<path class="st1" d="M379.9,77.9c-1,0.9-3.4,4-5,6.9l0.4,0.2l0.5,2.3l5.9,3c0,0,4.4-3,6.1-3.3s22.3-11.3,22.3-11.3
		c2.8-2.6,0.2-6.7,2-9c1-1.2-1.2-3.3-0.5-5.3c0.8-2,4.1-3,4.1-3l3.8-2.9c-5.9-1.8-2.3,0.7-9.7,0.3c-3.8-0.3-4.6,2.6-8.7,2.6
		c-4.1,0-6.4,1-7.4-0.3c-1.9-2.3-6,4-10,0.8c-1.2-1-2.3,0.3-2.6,1.5c-0.3,1.2,0.2,3.9-3.8,4.5c-0.3,1.2-0.7,2.4-0.1,3.3
		c1,1.2-0.2,2.8-0.5,4.8C381.9,72.7,381.2,76.9,379.9,77.9L379.9,77.9z"/>
	<path class="st1" d="M372.7,89.2c-0.1,0-3.7,4.1,1.1,8.8l0.9-8.8C373.7,89.1,373,89.1,372.7,89.2L372.7,89.2z"/>
	<path class="st1" d="M374.7,89.2c0.2-1.2,0.4-2.9,0.5-4.3l-3.3-1.4c-2,4.3-0.9,6.4-6.1,14.6l4.6,11.4l-0.3,0.7l0,0
		c0.2,0.1,0.4,0.3,0.7,0.4c1.4-10.1,2.4-8.5,2.9-12.6"/>
	<path class="st1" d="M396.1,83c-7.7,3.9-10.2,4.3-14.4,7.2l-5.9-3l-0.5-2.3l-0.1-0.1c-0.4,3.2-1.7,15.5-2.3,16.3
		c-0.7,0.9-1.5,5.5-2,9.4c2.1,1.2,4.6,2.4,5.8,2.5c2.3,0.3,5.1-2.3,5.1-3.8s2-1.8,4.1-1.8s2.3-2.3,3.8-3.1c1.5-0.8-3.3-5.1-4.9-5.6
		c-1.5-0.5,1.2-3.8,6.4-4.1c5.3-0.3,3.5-2,7-2L396.1,83L396.1,83z"/>
	<path class="st1" d="M450.9,115.4c0,0-10-1.2-11.5-1.2c-8.4,0-14.6-9.8-23.3-14.1c-2-1-10.5-7.1-12.8-7.4c-8.5-1-6.7,1.8-12,2
		c-5.2,0.3-7.9,3.6-6.4,4.1c1.5,0.5,6.4,4.9,4.9,5.6c-1.5,0.8-1.8,3.1-3.8,3.1c-2,0-4.1,0.3-4.1,1.8s-2.9,4.1-5.2,3.8
		c-1.3-0.2-4.2-1.6-6.4-2.9c-1.5,4.1-0.9,10.7,0.2,11c0.7,0.3,14.5,17.6,14.7,21c0.1,2.2,1.2,4.6,5,7.2s3.8,5.8,5.9,7.3
		c3.7,2.8-1,13.3,7,18.1c9.3,5.7,6.6,11.6,13.5,18.4c2.2,2.2,1,3.4,2.2,5c0.6,0.8,1.5,2.2,2.1,3.7c1.7-0.8,2.9-1.4,3-1.6
		c0.3-0.6-1.8-4.5,2.6-6c1.1-0.4,2.4,1.2,4.8,0.7c2.4-0.4,7.4,0.2,7.9,0.7c0.5,0.5,7.4,0.2,9.1,1.5c1.7,1.3,3.3,0.9,4.5-1.7
		c1.1-2.6,8.9-8.2,10-8.7c1.1-0.5,9.4,0,12.8-0.7c3.3-0.7,25.2-7.8,26.1-8.6c0.9-0.7,4.5-12.2,4.5-13.5s-1.7-4.8-3.3-4.6
		c-1.7,0.2-15.4-1.3-16.3-1.9c-0.7-0.4-4.4-3.2-4.9-7c-1.1-0.8-2.3-2.6-2.7-4.2c-1.6,0.2-4-0.2-5.4-3.7c-1.2-0.9-4.6-5.6-3.5-7
		c3.3-3.7-9.2-11.2-9.5-14.7c-0.1-0.6-0.4-1.6-0.8-2.8C453.1,118.1,455.1,118.9,450.9,115.4L450.9,115.4z"/>
	<path class="st1" d="M507.4,144v4.9l-4.1,5.2l-2.2,5.4c0.6,0,1.1,0,1.3,0c1.7-0.2,3.3,3.3,3.3,4.6c0,1.3-3.6,12.8-4.5,13.5
		c-0.7,0.5-12.2,4.4-19.9,6.7c1.7,3.5,5,10.2,7.9,16.4c0.5-0.2,1.1-0.4,1.6-0.8c3.7-2.1,7.8-1.1,10.5-1.8c2.8-0.8,0.1-3,2.5-5.1
		c2.4-2,5.9-0.4,7.1-1.2c1.2-0.7,2.1-5.1,4.2-6c2.1-0.9,4.5-0.3,4.1-2.1c-0.3-1.8,0.2-8.4,2.2-8.7c2-0.4,5.2-2.5,5.3-3.7
		c0.2-2.1,9.8-10.3,4.9-11.1c-1.8-0.3-4.7-5.3-5.4-6.8c-1.3-2.5-11.4,1.6-14.3-11C509.4,144.3,510.5,144,507.4,144L507.4,144
		L507.4,144z"/>
	<path class="st1" d="M478.6,146.6c-0.4-2,3.6-9-0.6-10.2c-3.9-1.1-3.7,7.1-4.8,6.4C474.5,146.5,477,146.8,478.6,146.6L478.6,146.6z
		"/>
	<path class="st1" d="M486.1,157.8c0.8,0.4,11.1,1.6,15,1.9l2.2-5.4l4.1-5.2v-4.9c3,0,2,0.3,4.7-1.2c-1-4-1.1-8-1.8-8.1
		c-1.2-0.1-5.9,5-7.8,8.7c-2,3.7-7.5,6.6-12.3,5.8c-7.2-1.3-6.6,3.5-9.1,1.6C481.8,154.6,485.4,157.2,486.1,157.8L486.1,157.8z"/>
	<path class="st1" d="M449.6,109.1c1.8-1.9,2.4-4.5,7.2,0c0.6-0.6,1.8-1.2,2.9-1.5c-1.7-1.8-3.8-3.8-3.7-5.1c0.3-2-2-3.1-2.3-4.4
		c-0.3-1.2,1.5-3.3,0.5-4.4s-1.2-3.6-3-3.8c-1.8-0.3-7.4-3-7.2-4.9c0.3-1.8-2-3.1-3-3.6c-1.1-0.5-2-5.1-0.8-5.9
		c1.2-0.8,1-5.2,2.6-5.2c1.5,0,0.3-2.3,0.8-3.8c1.1-3.1-6.1-1.3-6.1-6.1c0-1.8-2.6-4.4-2.3-5.1c-0.4,3.4-5.3-1.9-6.9-1.1
		s-2.7-1.5-5.8-1.2c-2,0.3-1.9,1.2-2.9,2.2h0.1l-3.8,2.9c0,0-3.3,1-4.1,3c-0.8,2,1.5,4.1,0.5,5.3c-1.9,2.3,0.7,6.4-2,9
		c0,0-7.7,4.1-14,7.4l2,9.5c2.5,0,2.9-0.3,5,0c3.7,0.4,24.9,15.9,28.4,19c3.2,2.9,9.4,2.7,15.2,3.4
		C447.8,112.7,449.1,109.7,449.6,109.1L449.6,109.1z"/>
	<path class="st1" d="M450.9,115.4c4.2,3.6,2.1,2.8,8.5,3.1c-2-5.3-4-7.8-2.6-9.3c-5.3-4.9-6.9-1.9-10,5.7
		C449.1,115.2,450.9,115.4,450.9,115.4L450.9,115.4z"/>
	<path class="st1" d="M475.3,186.3c-3.3,0.7-11.7,0.2-12.8,0.7c-1.2,0.5-8.9,6.1-10,8.7c-1.2,2.6-2.8,2.9-4.5,1.7
		c-1.7-1.3-8.6-0.9-9.1-1.5c-0.5-0.5-5.5-1.1-7.9-0.7c-3.7,0.5-4.1-2.9-7.6,1.7c-0.5,0.7,0.5,2.8,0.2,3.6c-0.1,0.2-1.2,0.8-3,1.6
		c1.9,4.6-1.7,8.2,2.5,14.3c2,2.9,1.2,8.5,2.2,9.5c1,1.1,8.5,0.9,11.8-1.3c6.2-4.1,11.9-1.2,15.4-6.1c0.9-1.2,4.8-1.2,6.4-1.1
		c1.6,0.2,3.3-1.6,5.1-3.5c1.8-1.8,7.6-2.6,13.7-4.5s4.8-4.8,6.2-6.5c1.2-1.4,2.9-1,5.5-2c-2.9-6.1-6.3-12.9-7.9-16.4
		C478.6,185.4,476.2,186.1,475.3,186.3L475.3,186.3z"/>
	<path class="st1" d="M469.5,125.2c0.3,0.6,0.9-0.6,1.2,1c2.5-1.6,1.2-0.3,3.1-3.8c0.1-1.8-0.4-5.5-1.5-2
		C471.7,121.9,469.1,119.7,469.5,125.2L469.5,125.2z"/>
	<path class="st1" d="M371,157.1c-1.9,0-1.2,4.6-4.2,4.6c-3,0-2,3-3.8,3c-2,0-3.5-2-3.5-2h-8.5c0,0-2-2-3-1.2
		c-1.2,0.8-2.3,1.5-2.3,1.5h-39.6c0,7.9,0,13.6,0,13.6h-6c0,2,0.8,27.4-0.8,28c-1.2,0.4-5.6,1.6-5.6,3.6c0,2-0.4,3.6-2.4,4
		c-2,0.4,0,4.8-2.8,4.8s1.2,3.2-0.4,4.8s-1.2,3.6,0.8,3.6c3.6,0-1.8,5.7,4.4,8.8l-0.8,2.8c0.5,0.6,3.5,4,5.1,7
		c1.6,0.1,3.4,0,3.9-0.4c0.5-0.4,1.4,0.2,1.8,0.1c0.1-0.3,0.1-0.2,0.2-0.4c0.1,0,0.4-0.4,0.4-0.6c0.2-0.1,0.3-0.6,0.5-0.7
		c1.1-1.2,0.6-1.4,1-2.4c0.2,0,0.1,0,0.2-0.2c0.7,0,4.6-0.3,4.7-0.1c0.4,0.1,0.6,1.8,1.1,2c0.1,0.2,0.1,0.1,0.1,0.3
		c0.3,0.1,1.1,1.9,1.7,2.2l0.3,0.4c0.4,0.2,0,0.6,1,0.8c2.1,0.5,2.6-0.4,3.9-0.2c0.1-0.1,0.1-0.1,0.1-0.3c0.5-0.2,2.3,0,2.9-0.1
		c0.1,0.2,2.8,1.2,2.9,1.2c0.1,0.1,0.1,0.1,0.2,0.2c1.2-0.3,3.7,1.1,4.4-0.2c0.4,0,0.1-0.3,0.4-0.4c0-0.2,0.1-0.1,0.1-0.3
		c0.1,0,0.3-0.2,0.3-0.3c0.2-0.1,0.1-0.1,0.3-0.1c0-0.2,0.5-0.9,0.6-0.9c0.1-0.3,1.2-0.4,1.8-0.7c2.6,1.3,1-2.2,2-2.1
		c0.2-0.4,2.5-1.2,3.4-0.3c2,0.7,4.3,3.6,7.1,2.9c0.1,0,0.6-0.3,0.8-0.3c0.1-0.1,0.1-0.1,0.1-0.3c0.2,0,0.2-0.1,0.4-0.2
		c0-0.2,0.4-0.8,0.6-0.8c0.4-1.3,2-3.2,2.2-3.7c0.2,0,1.2-1.1,1.2-1.5c0.2,0,0.1-0.1,0.3-0.1c0.1-0.2,0.8-0.5,0.9-0.8
		c0.2,0,0.4-0.1,0.4-0.4c0.5-0.2,0.6-0.6,0.8-0.7c0-1.1-1.2-1.3-0.6-3.5c0.3-1.2-0.5-1.2-0.7-1.5c-0.1,0-0.2-0.1-0.2-0.2
		c-0.4-0.1-0.3-0.4-1-1c1-0.1,3.8,0.4,3.8-0.4c0-0.5-0.1-0.3,0.2-0.5c0-0.2,0.1-0.4,0-0.6c-0.2-0.5,1.7-0.3,3-0.3
		c0,0.5-0.3,2.7-0.3,2.7c-0.2,0.2-0.2,7,1.2,7.4c0.3,0.8,2.5,0.4,2.7,1.8c0,0.1,0.2,0.2,0.4,0.3c0.1,0.4,0.3,0.4,0.4,0.5
		c0.4,0.2,1.6,2.6,0.6,3.4c-0.4,0.4-0.4,1.5-0.4,2c0.1,0,1.3,0.1,2.5,0.2c0.4-2.2,3.1-4.5,2-5.6c-1.2-1.2,1.2-1.6,2.9-2.9
		c1.6-1.2,0.4-4.8,2-6.4c1.6-1.6,2.8-4.8,4-4.8c1.2,0,2.9-1.6,2.9-3.2c0-1.6,2.9-4.8,2.4-7.7c-0.4-2.9-1.6-6.4,0.4-8.8
		c2-2.4,2.8-4.5,2.4-6.4c-0.5-2.7,6.1-3.5,9.8-9.4c-4.3-5.3-7.8-3.8-7.8-13.9c0-19.5-9.4-15.1-10.7-22.4
		C372.5,157.6,373,157.1,371,157.1L371,157.1z"/>
</g>
</svg>
